<?xml version="1.0" encoding="UTF-8" ?>
<!DOCTYPE svg PUBLIC "-//W3C//DTD SVG 1.1//EN" "http://www.w3.org/Graphics/SVG/1.1/DTD/svg11.dtd">
<svg width="226pt" height="223pt" viewBox="0 0 226 223" version="1.1" xmlns="http://www.w3.org/2000/svg">
<g id="#ffffffff">
<path fill="#ffffff" opacity="1.00" d=" M 149.25 28.58 L 150.07 27.96 C 150.45 28.18 151.20 28.62 151.58 28.84 C 150.98 29.25 149.78 30.08 149.18 30.50 C 149.20 30.02 149.23 29.06 149.25 28.58 Z" />
<path fill="#ffffff" opacity="1.00" d=" M 73.47 83.68 C 76.42 81.71 80.96 84.24 79.76 87.96 C 79.79 91.03 76.32 91.47 74.03 90.86 C 71.59 89.48 71.30 85.40 73.47 83.68 Z" />
<path fill="#ffffff" opacity="1.00" d=" M 124.77 85.91 C 126.05 84.86 127.00 82.73 128.94 83.05 C 132.49 82.65 134.11 87.53 132.03 89.96 C 130.77 91.52 128.53 90.79 126.81 91.13 C 125.53 89.66 125.00 87.81 124.77 85.91 Z" />
</g>
<g id="#ccccccff">
<path fill="#cccccc" opacity="1.00" d=" M 223.52 60.80 C 224.14 60.78 225.38 60.75 226.00 60.73 L 226.00 64.70 C 225.40 64.99 224.19 65.55 223.59 65.84 C 223.56 64.15 223.53 62.47 223.52 60.80 Z" />
<path fill="#cccccc" opacity="1.00" d=" M 223.13 73.77 C 223.50 71.90 224.10 70.08 226.00 69.24 L 226.00 75.83 C 225.28 75.32 223.85 74.29 223.13 73.77 Z" />
</g>
<g id="#010000ff">
<path fill="#010000" opacity="1.00" d=" M 2.86 2.27 L 3.45 1.75 C 5.52 1.75 7.60 1.85 9.66 2.09 C 11.07 2.51 12.49 2.91 13.91 3.33 C 15.44 3.78 16.98 4.24 18.49 4.76 C 21.52 5.80 24.39 7.20 27.22 8.69 C 27.98 9.06 28.72 9.48 29.48 9.85 C 44.10 17.26 56.58 28.75 65.67 42.35 C 67.53 45.25 69.25 48.23 70.96 51.21 C 72.00 50.53 73.04 49.85 74.08 49.16 C 82.27 44.66 91.70 42.73 101.00 42.92 C 107.66 42.63 114.38 43.41 120.77 45.33 C 122.45 45.83 124.13 46.36 125.78 46.96 C 127.57 47.64 129.32 48.44 131.04 49.28 C 131.81 48.35 132.57 47.41 133.35 46.49 C 135.57 44.01 137.77 41.51 140.05 39.08 C 140.44 38.68 140.83 38.29 141.23 37.90 C 142.62 36.55 144.03 35.22 145.47 33.91 C 145.62 33.77 145.94 33.49 146.10 33.35 C 147.15 32.42 148.16 31.45 149.18 30.50 C 149.78 30.08 150.98 29.25 151.58 28.84 C 152.27 28.27 152.97 27.71 153.69 27.17 C 158.19 23.74 162.92 20.59 167.99 18.06 C 169.88 17.13 171.79 16.23 173.71 15.34 C 174.21 15.13 175.19 14.70 175.69 14.48 C 176.33 14.23 176.97 13.96 177.61 13.70 C 181.47 11.98 185.46 10.57 189.61 9.75 L 190.46 9.60 C 191.76 9.34 193.04 9.05 194.35 8.83 C 196.47 8.61 198.61 8.58 200.75 8.75 L 202.34 8.92 C 201.69 10.81 201.05 12.69 200.25 14.52 C 198.07 19.01 195.55 23.35 192.57 27.36 C 190.37 30.33 187.98 33.15 185.61 35.98 C 185.46 36.15 185.15 36.50 185.00 36.68 C 179.57 42.10 173.56 46.89 167.29 51.30 C 164.23 53.50 161.04 55.52 157.71 57.29 C 154.05 59.25 150.38 61.19 146.69 63.10 C 147.79 64.78 148.90 66.45 150.01 68.13 C 151.68 67.22 153.35 66.29 155.05 65.43 C 157.81 64.09 160.54 62.67 163.35 61.42 C 164.72 60.80 166.09 60.17 167.45 59.52 C 170.65 57.98 173.90 56.54 177.20 55.21 C 180.23 53.98 183.27 52.77 186.29 51.51 C 190.30 49.84 194.36 48.27 198.49 46.89 C 198.90 46.75 199.73 46.48 200.15 46.35 C 201.83 45.78 203.51 45.23 205.20 44.70 C 207.05 44.13 208.90 43.57 210.77 43.05 C 211.08 42.97 211.71 42.82 212.02 42.74 C 212.58 42.59 213.69 42.29 214.24 42.14 C 215.76 41.74 217.29 41.35 218.83 41.02 C 220.63 40.67 222.43 40.31 224.24 39.98 L 224.42 39.95 C 224.35 42.46 224.30 44.97 224.32 47.48 C 223.66 47.60 222.98 47.63 222.32 47.71 C 222.53 45.76 222.73 43.81 222.93 41.86 C 221.56 42.14 220.20 42.44 218.84 42.74 C 194.96 48.11 172.57 58.47 150.59 69.00 C 152.69 76.18 152.80 83.70 153.00 91.11 C 153.14 98.23 156.67 104.79 156.73 111.93 C 157.06 116.04 155.63 119.97 154.02 123.66 C 158.02 126.32 162.04 128.97 166.03 131.64 C 160.67 134.93 155.19 138.02 149.81 141.28 C 151.04 145.57 152.43 149.84 154.36 153.88 C 155.52 156.28 156.73 158.65 157.92 161.04 C 161.89 159.51 165.79 157.78 169.63 155.93 C 168.22 154.22 166.80 152.52 165.38 150.82 L 165.30 150.84 L 165.15 150.63 C 164.11 149.11 163.05 147.62 161.98 146.14 C 171.96 141.60 181.94 137.06 191.89 132.45 C 183.87 123.07 175.62 113.89 167.69 104.44 C 183.07 99.89 198.55 95.64 214.08 91.61 C 218.26 77.90 220.60 63.70 222.33 49.49 C 222.58 49.61 223.06 49.84 223.31 49.95 C 223.31 50.46 223.32 51.48 223.33 52.00 C 223.22 53.35 223.06 54.70 222.91 56.06 C 222.04 62.37 221.02 68.66 219.58 74.86 C 219.28 76.29 218.99 77.73 218.70 79.16 C 218.09 82.23 217.26 85.26 216.37 88.26 C 215.88 89.84 215.34 91.40 214.80 92.97 L 214.16 92.92 C 212.17 93.30 210.22 93.85 208.27 94.39 C 204.79 95.38 201.31 96.39 197.77 97.14 C 197.21 97.28 196.09 97.57 195.53 97.71 C 194.08 98.10 192.64 98.51 191.20 98.90 C 189.59 99.33 187.99 99.77 186.40 100.25 C 183.20 101.13 180.00 102.04 176.79 102.89 C 174.79 103.41 172.81 103.98 170.81 104.50 L 169.43 104.84 C 177.76 114.31 186.07 123.80 194.61 133.07 C 193.16 133.63 191.73 134.19 190.30 134.77 C 188.92 135.34 187.55 135.94 186.18 136.55 C 182.99 137.94 179.82 139.40 176.61 140.76 C 175.09 141.41 173.57 142.09 172.03 142.72 C 170.86 143.10 169.73 143.60 168.66 144.22 C 168.44 144.32 168.01 144.52 167.79 144.62 C 166.30 145.25 164.80 145.86 163.30 146.47 C 165.34 148.94 167.32 151.48 169.49 153.84 C 170.13 154.73 170.76 155.63 171.38 156.53 C 168.32 157.74 165.27 158.99 162.25 160.29 C 160.89 160.86 159.54 161.48 158.19 162.07 C 158.48 162.56 159.05 163.53 159.34 164.01 C 161.06 167.23 162.76 170.47 164.38 173.75 C 166.87 178.02 167.53 183.02 166.32 187.80 C 166.76 187.50 167.65 186.90 168.09 186.60 C 169.28 185.80 170.49 185.01 171.66 184.18 C 174.27 183.08 177.11 183.17 179.86 183.56 C 180.29 184.70 180.72 185.84 181.15 186.99 C 181.11 187.27 181.03 187.84 180.99 188.12 C 180.38 190.48 180.12 192.90 180.13 195.33 C 179.23 195.25 178.34 195.17 177.44 195.09 C 170.51 204.08 162.94 212.88 153.20 218.93 C 151.38 220.00 149.49 220.96 147.55 221.80 C 146.28 221.98 145.02 222.17 143.76 222.36 C 143.22 222.07 142.13 221.50 141.59 221.22 C 141.37 220.78 140.93 219.91 140.71 219.48 C 136.82 219.55 133.20 218.17 129.77 216.49 C 129.18 218.30 128.62 220.13 128.05 221.95 C 127.47 221.65 126.31 221.05 125.73 220.75 C 124.88 221.15 124.02 221.55 123.17 221.94 C 122.51 221.27 121.85 220.59 121.19 219.92 C 120.66 220.08 119.58 220.40 119.05 220.55 C 118.28 220.07 117.51 219.60 116.73 219.14 L 116.04 219.13 C 115.52 219.15 114.46 219.19 113.94 219.22 C 113.48 218.82 113.06 218.39 112.67 217.94 C 112.39 217.64 111.82 217.03 111.53 216.73 C 111.08 216.36 110.16 215.63 109.70 215.27 L 109.01 214.72 C 109.18 214.26 109.52 213.34 109.69 212.89 C 109.31 212.75 108.55 212.49 108.17 212.36 C 106.33 212.36 104.49 212.38 102.65 212.41 C 100.37 212.46 98.09 212.57 95.81 212.68 C 95.77 213.47 95.69 215.06 95.65 215.85 C 95.00 215.93 93.70 216.07 93.05 216.14 C 92.72 217.00 92.40 217.86 92.08 218.72 C 91.36 218.35 89.91 217.61 89.19 217.25 C 88.62 218.21 88.05 219.16 87.47 220.11 C 86.97 219.88 85.99 219.41 85.49 219.17 C 85.17 219.01 84.54 218.68 84.22 218.51 C 83.29 219.40 82.37 220.29 81.44 221.18 C 80.84 220.66 79.65 219.61 79.05 219.09 C 77.66 219.35 76.29 219.71 74.92 220.04 C 74.91 219.08 74.89 217.16 74.88 216.20 C 72.71 216.65 70.53 217.10 68.34 217.50 C 65.73 217.88 63.07 217.67 60.47 217.28 C 60.11 217.67 59.38 218.46 59.02 218.85 C 57.55 220.03 55.67 220.27 53.87 220.53 C 51.27 219.43 48.83 217.97 46.70 216.12 C 46.38 215.85 45.76 215.29 45.45 215.02 C 44.69 214.29 43.94 213.55 43.20 212.80 C 42.22 211.80 41.24 210.79 40.28 209.78 C 39.24 208.66 38.23 207.50 37.23 206.35 C 37.10 206.19 36.83 205.88 36.69 205.72 C 32.12 199.88 26.50 194.50 23.91 187.40 C 23.93 186.61 23.95 185.03 23.96 184.25 C 24.39 183.71 25.26 182.64 25.69 182.11 L 26.04 183.31 C 26.86 186.73 29.03 189.57 31.18 192.27 C 31.86 193.24 32.50 194.25 33.11 195.28 C 32.29 194.47 31.49 193.64 30.71 192.80 C 28.41 190.23 26.54 187.33 24.54 184.52 C 24.93 188.19 26.71 191.46 28.94 194.33 C 34.20 201.23 39.88 207.83 46.12 213.87 C 48.72 216.20 51.48 218.81 55.06 219.38 C 57.27 219.57 58.55 217.56 59.94 216.21 C 60.00 213.59 60.13 210.96 60.54 208.37 C 60.89 211.10 61.00 213.85 61.13 216.61 C 65.35 216.96 69.55 216.41 73.68 215.66 C 70.04 211.36 66.45 206.99 63.41 202.24 C 58.62 194.63 54.65 185.84 55.00 176.69 C 57.43 190.42 64.34 202.96 73.33 213.48 C 74.78 215.05 75.61 217.01 76.17 219.05 C 77.28 218.74 78.39 218.43 79.51 218.12 C 79.93 218.62 80.78 219.62 81.21 220.12 C 82.23 219.15 83.25 218.19 84.27 217.23 C 85.16 217.85 86.04 218.47 86.93 219.10 C 87.69 218.06 88.45 217.01 89.22 215.97 C 89.66 216.26 90.54 216.85 90.99 217.15 C 92.25 216.27 93.53 215.40 94.82 214.56 C 94.92 209.65 95.70 204.81 95.96 199.92 C 96.82 187.55 96.17 175.00 93.37 162.90 C 92.85 160.69 92.41 158.46 92.19 156.20 C 96.48 167.24 97.54 179.24 97.62 191.00 C 97.54 197.85 96.86 204.68 95.89 211.46 C 100.94 211.16 105.99 211.19 111.04 211.31 C 110.11 204.66 109.23 197.96 109.56 191.23 C 110.08 178.87 111.31 166.00 117.30 154.94 C 112.86 169.46 109.88 184.65 110.61 199.89 C 110.66 204.89 113.45 210.32 110.15 214.84 C 110.99 215.29 111.82 215.76 112.66 216.22 C 113.16 216.97 113.66 217.71 114.16 218.46 C 116.70 218.45 119.14 219.51 121.69 219.14 C 122.18 219.58 122.68 220.03 123.17 220.48 C 124.59 220.21 126.02 220.02 127.45 219.87 C 128.49 216.14 131.27 213.35 133.32 210.18 C 141.13 198.37 146.89 185.21 149.98 171.39 C 149.94 181.99 145.14 191.86 140.35 201.08 C 137.56 206.23 134.20 211.03 130.82 215.80 C 133.68 217.08 136.61 218.55 139.83 218.51 C 140.99 216.50 141.90 214.36 143.05 212.34 C 142.49 214.43 141.84 216.49 141.17 218.55 C 142.78 221.49 146.23 221.24 148.78 219.74 C 158.05 214.93 165.59 207.38 172.25 199.45 C 174.93 195.86 179.10 192.83 179.82 188.18 C 176.76 190.84 174.46 194.28 171.60 197.17 C 171.20 197.41 170.41 197.89 170.02 198.13 C 170.80 197.22 171.60 196.33 172.40 195.43 C 175.10 192.27 178.22 189.20 179.39 185.08 C 179.04 185.00 178.35 184.85 178.00 184.77 C 175.08 187.31 173.65 191.51 170.28 193.83 L 169.90 193.91 C 172.61 190.83 175.27 187.56 176.53 183.58 C 168.46 186.20 162.48 192.51 155.60 197.14 C 158.34 193.81 161.79 191.20 165.15 188.55 C 166.82 179.89 162.42 171.91 158.38 164.62 C 152.66 154.52 148.09 143.49 147.22 131.80 C 139.87 138.62 130.84 143.55 121.21 146.31 C 130.91 141.99 140.56 137.08 148.02 129.32 C 143.45 130.14 137.80 129.01 135.80 124.31 C 132.45 115.68 139.99 105.30 149.07 105.04 C 151.31 105.13 153.11 106.64 154.96 107.71 C 153.32 101.94 151.72 96.06 151.81 90.01 C 151.82 83.30 151.59 76.44 149.32 70.06 C 147.92 66.16 145.41 62.82 143.10 59.43 C 144.17 60.34 145.23 61.26 146.29 62.18 C 156.70 57.11 166.62 50.94 175.46 43.45 C 177.45 41.88 178.14 39.35 178.85 37.04 C 181.07 29.19 182.76 21.16 183.47 13.01 C 164.22 18.88 147.71 31.52 134.55 46.48 C 133.49 47.72 132.71 49.16 131.96 50.60 C 118.61 43.94 103.06 42.78 88.49 45.17 C 82.04 46.25 75.93 48.79 70.39 52.23 C 58.74 32.44 41.48 15.46 20.05 6.67 C 20.17 15.49 21.91 24.23 24.64 32.60 C 26.23 37.96 30.77 41.56 34.59 45.33 C 41.74 52.23 49.92 57.95 58.42 63.05 C 60.12 61.35 61.85 59.67 63.71 58.13 C 60.66 62.06 57.06 65.79 55.63 70.69 C 53.57 76.62 54.99 82.91 54.60 89.02 C 54.42 94.60 52.80 99.98 51.46 105.35 C 54.19 104.16 57.23 103.10 60.22 103.91 C 66.97 105.68 71.76 113.07 70.68 119.94 C 69.77 124.89 65.22 127.97 60.78 129.57 C 67.33 135.50 75.06 139.79 82.60 144.28 C 74.41 141.23 66.96 136.43 60.15 131.00 C 60.01 138.00 58.28 144.96 55.06 151.18 C 51.91 157.20 48.10 162.83 44.57 168.63 C 41.61 173.44 40.25 179.23 40.80 184.86 C 42.92 187.58 45.71 189.67 47.97 192.27 C 41.71 188.47 37.15 181.37 29.44 180.38 C 30.06 185.03 33.09 188.69 35.95 192.19 C 36.39 192.85 37.27 194.16 37.71 194.81 C 36.64 193.81 35.59 192.79 34.56 191.75 C 31.93 188.63 29.73 185.14 28.25 181.33 C 27.69 181.70 26.58 182.44 26.02 182.81 C 26.01 182.47 26.00 181.80 25.99 181.46 C 26.40 181.32 27.22 181.05 27.64 180.91 C 29.53 180.26 31.50 179.72 33.53 179.95 C 34.56 180.78 35.62 181.59 36.71 182.35 C 37.38 182.80 38.71 183.70 39.38 184.16 C 39.43 182.19 39.45 180.24 39.58 178.29 C 39.85 176.67 40.15 175.07 40.56 173.49 C 41.77 169.74 44.01 166.47 46.21 163.24 C 46.33 163.07 46.57 162.73 46.68 162.55 C 47.01 162.07 47.68 161.10 48.01 160.61 C 50.37 157.18 52.65 153.67 54.47 149.91 C 55.20 148.37 55.87 146.81 56.49 145.23 C 56.55 145.07 56.65 144.75 56.71 144.59 C 58.13 139.85 58.90 134.92 59.01 129.97 C 57.63 128.56 56.26 127.13 54.99 125.61 C 53.92 124.27 52.92 122.88 51.95 121.46 L 51.88 121.31 C 51.04 119.40 50.24 117.47 49.62 115.47 C 48.00 111.36 49.39 107.08 50.59 103.07 C 51.06 101.44 51.55 99.81 51.98 98.16 C 52.63 95.47 53.37 92.78 53.52 90.01 C 53.56 88.35 53.59 86.70 53.51 85.04 C 53.05 80.09 52.61 74.94 54.56 70.22 C 55.08 68.98 55.68 67.77 56.30 66.58 C 56.84 65.66 57.39 64.75 57.96 63.85 C 54.10 61.58 50.27 59.24 46.65 56.60 C 44.11 54.72 41.56 52.87 39.10 50.90 C 38.81 50.67 38.24 50.19 37.95 49.95 C 33.02 45.87 28.59 41.24 24.13 36.67 C 24.01 36.52 23.78 36.22 23.66 36.08 C 22.49 34.62 21.26 33.23 20.07 31.79 C 19.90 31.58 19.55 31.16 19.38 30.95 C 18.43 29.74 17.44 28.56 16.51 27.33 C 12.56 22.88 10.22 17.23 6.15 12.90 C 5.77 11.69 5.54 10.41 5.09 9.20 C 4.51 7.54 3.79 5.93 3.23 4.26 C 3.13 3.76 2.95 2.77 2.86 2.27 M 51.03 109.00 C 49.72 116.75 54.70 123.69 60.03 128.74 C 64.63 127.41 69.04 123.88 69.73 118.91 C 70.08 112.20 64.83 105.15 57.96 104.54 C 55.25 104.70 50.96 105.51 51.03 109.00 M 137.19 124.90 C 139.40 129.14 145.56 129.55 149.35 127.39 C 153.67 122.41 155.47 115.70 154.91 109.20 C 152.96 107.51 150.83 105.51 148.02 106.09 C 139.79 107.09 133.74 117.22 137.19 124.90 M 151.80 126.15 C 152.27 127.21 153.04 128.41 152.57 129.61 C 151.53 130.03 150.67 128.97 149.79 128.61 C 149.41 129.10 148.66 130.09 148.29 130.58 C 148.40 132.25 148.52 133.92 148.64 135.59 C 148.91 137.15 149.19 138.70 149.47 140.26 C 152.61 138.60 155.66 136.80 158.65 134.88 L 158.67 134.94 C 160.47 133.79 162.30 132.69 164.10 131.54 C 160.64 129.50 157.34 127.21 153.87 125.19 L 153.89 124.54 C 153.37 124.94 152.33 125.75 151.80 126.15 Z" />
<path fill="#010000" opacity="1.00" d=" M 69.28 82.13 C 73.22 80.74 78.42 81.49 80.59 85.43 C 83.84 90.30 81.53 97.62 75.95 99.53 C 70.37 102.00 63.48 97.06 63.87 91.03 C 63.58 87.29 66.15 83.90 69.28 82.13 M 73.47 83.68 C 71.30 85.40 71.59 89.48 74.03 90.86 C 76.32 91.47 79.79 91.03 79.76 87.96 C 80.96 84.24 76.42 81.71 73.47 83.68 Z" />
<path fill="#010000" opacity="1.00" d=" M 127.35 82.26 C 131.27 80.40 136.47 81.29 139.03 84.96 C 141.89 88.46 141.73 94.16 138.38 97.29 C 134.55 101.22 127.14 100.23 124.34 95.55 C 121.66 91.27 122.85 84.83 127.35 82.26 M 124.77 85.91 C 125.00 87.81 125.53 89.66 126.81 91.13 C 128.53 90.79 130.77 91.52 132.03 89.96 C 134.11 87.53 132.49 82.65 128.94 83.05 C 127.00 82.73 126.05 84.86 124.77 85.91 Z" />
<path fill="#010000" opacity="1.00" d=" M 100.35 97.96 C 102.43 97.72 104.54 97.71 106.63 97.91 C 105.07 100.02 101.96 99.97 100.35 97.96 Z" />
<path fill="#010000" opacity="1.00" d=" M 91.93 112.25 C 96.08 112.57 99.54 110.00 103.22 108.57 C 106.94 109.55 110.07 112.38 114.03 112.69 C 116.95 113.13 119.09 110.78 121.29 109.29 C 119.58 111.77 117.09 114.14 113.85 113.98 C 110.10 113.21 106.74 111.33 103.45 109.47 C 99.89 111.97 95.62 114.11 91.14 113.30 C 88.63 113.26 87.16 111.03 85.67 109.35 C 87.63 110.55 89.48 112.29 91.93 112.25 Z" />
</g>
<g id="#ffd924ff">
<path fill="#ffd924" opacity="1.00" d=" M 20.05 6.67 C 41.48 15.46 58.74 32.44 70.39 52.23 C 75.93 48.79 82.04 46.25 88.49 45.17 C 103.06 42.78 118.61 43.94 131.96 50.60 C 132.71 49.16 133.49 47.72 134.55 46.48 C 147.71 31.52 164.22 18.88 183.47 13.01 C 182.76 21.16 181.07 29.19 178.85 37.04 C 178.14 39.35 177.45 41.88 175.46 43.45 C 166.62 50.94 156.70 57.11 146.29 62.18 C 145.23 61.26 144.17 60.34 143.10 59.43 C 145.41 62.82 147.92 66.16 149.32 70.06 C 151.59 76.44 151.82 83.30 151.81 90.01 C 151.72 96.06 153.32 101.94 154.96 107.71 C 153.11 106.64 151.31 105.13 149.07 105.04 C 139.99 105.30 132.45 115.68 135.80 124.31 C 137.80 129.01 143.45 130.14 148.02 129.32 C 140.56 137.08 130.91 141.99 121.21 146.31 C 130.84 143.55 139.87 138.62 147.22 131.80 C 148.09 143.49 152.66 154.52 158.38 164.62 C 162.42 171.91 166.82 179.89 165.15 188.55 C 161.79 191.20 158.34 193.81 155.60 197.14 C 162.48 192.51 168.46 186.20 176.53 183.58 C 175.27 187.56 172.61 190.83 169.90 193.91 C 160.68 195.15 154.50 202.61 148.62 209.05 C 146.19 206.07 143.43 203.38 140.35 201.08 C 145.14 191.86 149.94 181.99 149.98 171.39 C 146.89 185.21 141.13 198.37 133.32 210.18 C 131.27 213.35 128.49 216.14 127.45 219.87 C 126.02 220.02 124.59 220.21 123.17 220.48 C 122.68 220.03 122.18 219.58 121.69 219.14 C 119.14 219.51 116.70 218.45 114.16 218.46 C 113.66 217.71 113.16 216.97 112.66 216.22 C 111.82 215.76 110.99 215.29 110.15 214.84 C 113.45 210.32 110.66 204.89 110.61 199.89 C 109.88 184.65 112.86 169.46 117.30 154.94 C 111.31 166.00 110.08 178.87 109.56 191.23 C 105.58 190.95 101.60 190.86 97.62 191.00 C 97.54 179.24 96.48 167.24 92.19 156.20 C 92.41 158.46 92.85 160.69 93.37 162.90 C 96.17 175.00 96.82 187.55 95.96 199.92 C 95.70 204.81 94.92 209.65 94.82 214.56 C 93.53 215.40 92.25 216.27 90.99 217.15 C 90.54 216.85 89.66 216.26 89.22 215.97 C 88.45 217.01 87.69 218.06 86.93 219.10 C 86.04 218.47 85.16 217.85 84.27 217.23 C 83.25 218.19 82.23 219.15 81.21 220.12 C 80.78 219.62 79.93 218.62 79.51 218.12 C 78.39 218.43 77.28 218.74 76.17 219.05 C 75.61 217.01 74.78 215.05 73.33 213.48 C 64.34 202.96 57.43 190.42 55.00 176.69 C 54.65 185.84 58.62 194.63 63.41 202.24 C 60.91 203.62 58.43 205.03 55.96 206.46 C 49.80 201.10 44.44 193.81 35.95 192.19 C 33.09 188.69 30.06 185.03 29.44 180.38 C 37.15 181.37 41.71 188.47 47.97 192.27 C 45.71 189.67 42.92 187.58 40.80 184.86 C 40.25 179.23 41.61 173.44 44.57 168.63 C 48.10 162.83 51.91 157.20 55.06 151.18 C 58.28 144.96 60.01 138.00 60.15 131.00 C 66.96 136.43 74.41 141.23 82.60 144.28 C 75.06 139.79 67.33 135.50 60.78 129.57 C 65.22 127.97 69.77 124.89 70.68 119.94 C 71.76 113.07 66.97 105.68 60.22 103.91 C 57.23 103.10 54.19 104.16 51.46 105.35 C 52.80 99.98 54.42 94.60 54.60 89.02 C 54.99 82.91 53.57 76.62 55.63 70.69 C 57.06 65.79 60.66 62.06 63.71 58.13 C 61.85 59.67 60.12 61.35 58.42 63.05 C 49.92 57.95 41.74 52.23 34.59 45.33 C 30.77 41.56 26.23 37.96 24.64 32.60 C 21.91 24.23 20.17 15.49 20.05 6.67 M 69.28 82.13 C 66.15 83.90 63.58 87.29 63.87 91.03 C 63.48 97.06 70.37 102.00 75.95 99.53 C 81.53 97.62 83.84 90.30 80.59 85.43 C 78.42 81.49 73.22 80.74 69.28 82.13 M 127.35 82.26 C 122.85 84.83 121.66 91.27 124.34 95.55 C 127.14 100.23 134.55 101.22 138.38 97.29 C 141.73 94.16 141.89 88.46 139.03 84.96 C 136.47 81.29 131.27 80.40 127.35 82.26 M 100.35 97.96 C 101.96 99.97 105.07 100.02 106.63 97.91 C 104.54 97.71 102.43 97.72 100.35 97.96 M 91.93 112.25 C 89.48 112.29 87.63 110.55 85.67 109.35 C 87.16 111.03 88.63 113.26 91.14 113.30 C 95.62 114.11 99.89 111.97 103.45 109.47 C 106.74 111.33 110.10 113.21 113.85 113.98 C 117.09 114.14 119.58 111.77 121.29 109.29 C 119.09 110.78 116.95 113.13 114.03 112.69 C 110.07 112.38 106.94 109.55 103.22 108.57 C 99.54 110.00 96.08 112.57 91.93 112.25 M 90.15 146.64 C 93.77 152.22 101.00 152.73 106.97 151.78 C 110.19 151.26 112.80 149.18 115.28 147.22 C 106.90 146.97 98.52 146.85 90.15 146.64 Z" />
<path fill="#ffd924" opacity="1.00" d=" M 150.59 69.00 C 172.57 58.47 194.96 48.11 218.84 42.74 C 219.80 42.56 221.73 42.19 222.69 42.01 C 222.47 44.49 221.98 47.00 222.33 49.49 C 220.60 63.70 218.26 77.90 214.08 91.61 C 198.55 95.64 183.07 99.89 167.69 104.44 C 175.62 113.89 183.87 123.07 191.89 132.45 C 181.94 137.06 171.96 141.60 161.98 146.14 C 163.05 147.62 164.11 149.11 165.15 150.63 C 162.75 149.49 160.40 148.26 158.06 147.01 C 158.55 148.21 159.54 150.59 160.03 151.78 C 158.56 150.99 157.08 150.20 155.61 149.41 C 156.19 150.50 156.77 151.58 157.36 152.67 C 156.61 152.97 155.11 153.58 154.36 153.88 C 152.43 149.84 151.04 145.57 149.81 141.28 C 155.19 138.02 160.67 134.93 166.03 131.64 C 162.04 128.97 158.02 126.32 154.02 123.66 C 155.63 119.97 157.06 116.04 156.73 111.93 C 156.67 104.79 153.14 98.23 153.00 91.11 C 152.80 83.70 152.69 76.18 150.59 69.00 Z" />
<path fill="#ffd924" opacity="1.00" d=" M 26.02 182.81 C 26.58 182.44 27.69 181.70 28.25 181.33 C 29.73 185.14 31.93 188.63 34.56 191.75 C 33.71 191.88 32.02 192.14 31.18 192.27 C 29.03 189.57 26.86 186.73 26.04 183.31 L 26.02 182.81 Z" />
<path fill="#ffd924" opacity="1.00" d=" M 170.28 193.83 C 173.65 191.51 175.08 187.31 178.00 184.77 C 178.35 184.85 179.04 185.00 179.39 185.08 C 178.22 189.20 175.10 192.27 172.40 195.43 C 171.87 195.03 170.81 194.23 170.28 193.83 Z" />
<path fill="#ffd924" opacity="1.00" d=" M 24.54 184.52 C 26.54 187.33 28.41 190.23 30.71 192.80 C 30.27 193.18 29.38 193.94 28.94 194.33 C 26.71 191.46 24.93 188.19 24.54 184.52 Z" />
<path fill="#ffd924" opacity="1.00" d=" M 171.60 197.17 C 174.46 194.28 176.76 190.84 179.82 188.18 C 179.10 192.83 174.93 195.86 172.25 199.45 L 171.60 197.17 Z" />
</g>
<g id="#fd3410ff">
<path fill="#fd3410" opacity="1.00" d=" M 51.03 109.00 C 50.96 105.51 55.25 104.70 57.96 104.54 C 64.83 105.15 70.08 112.20 69.73 118.91 C 69.04 123.88 64.63 127.41 60.03 128.74 C 54.70 123.69 49.72 116.75 51.03 109.00 Z" />
<path fill="#fd3410" opacity="1.00" d=" M 137.19 124.90 C 133.74 117.22 139.79 107.09 148.02 106.09 C 150.83 105.51 152.96 107.51 154.91 109.20 C 155.47 115.70 153.67 122.41 149.35 127.39 C 145.56 129.55 139.40 129.14 137.19 124.90 Z" />
<path fill="#fd3410" opacity="1.00" d=" M 158.06 147.01 C 160.40 148.26 162.75 149.49 165.15 150.63 L 165.30 150.84 L 165.38 150.82 C 166.80 152.52 168.22 154.22 169.63 155.93 C 165.79 157.78 161.89 159.51 157.92 161.04 C 156.73 158.65 155.52 156.28 154.36 153.88 C 155.11 153.58 156.61 152.97 157.36 152.67 C 156.77 151.58 156.19 150.50 155.61 149.41 C 157.08 150.20 158.56 150.99 160.03 151.78 C 159.54 150.59 158.55 148.21 158.06 147.01 Z" />
</g>
<g id="#e5961eff">
<path fill="#e5961e" opacity="1.00" d=" M 90.15 146.64 C 98.52 146.85 106.90 146.97 115.28 147.22 C 112.80 149.18 110.19 151.26 106.97 151.78 C 101.00 152.73 93.77 152.22 90.15 146.64 Z" />
<path fill="#e5961e" opacity="1.00" d=" M 97.62 191.00 C 101.60 190.86 105.58 190.95 109.56 191.23 C 109.23 197.96 110.11 204.66 111.04 211.31 C 105.99 211.19 100.94 211.16 95.89 211.46 C 96.86 204.68 97.54 197.85 97.62 191.00 Z" />
<path fill="#e5961e" opacity="1.00" d=" M 31.18 192.27 C 32.02 192.14 33.71 191.88 34.56 191.75 C 35.59 192.79 36.64 193.81 37.71 194.81 C 37.27 194.16 36.39 192.85 35.95 192.19 C 44.44 193.81 49.80 201.10 55.96 206.46 C 58.43 205.03 60.91 203.62 63.41 202.24 C 66.45 206.99 70.04 211.36 73.68 215.66 C 69.55 216.41 65.35 216.96 61.13 216.61 C 61.00 213.85 60.89 211.10 60.54 208.37 C 60.13 210.96 60.00 213.59 59.94 216.21 C 58.55 217.56 57.27 219.57 55.06 219.38 C 51.48 218.81 48.72 216.20 46.12 213.87 C 39.88 207.83 34.20 201.23 28.94 194.33 C 29.38 193.94 30.27 193.18 30.71 192.80 C 31.49 193.64 32.29 194.47 33.11 195.28 C 32.50 194.25 31.86 193.24 31.18 192.27 Z" />
<path fill="#e5961e" opacity="1.00" d=" M 148.62 209.05 C 154.50 202.61 160.68 195.15 169.90 193.91 L 170.28 193.83 C 170.81 194.23 171.87 195.03 172.40 195.43 C 171.60 196.33 170.80 197.22 170.02 198.13 C 170.41 197.89 171.20 197.41 171.60 197.17 L 172.25 199.45 C 165.59 207.38 158.05 214.93 148.78 219.74 C 146.23 221.24 142.78 221.49 141.17 218.55 C 141.84 216.49 142.49 214.43 143.05 212.34 C 141.90 214.36 140.99 216.50 139.83 218.51 C 136.61 218.55 133.68 217.08 130.82 215.80 C 134.20 211.03 137.56 206.23 140.35 201.08 C 143.43 203.38 146.19 206.07 148.62 209.05 Z" />
</g>
</svg>
