<?xml version="1.0" encoding="UTF-8" ?>
<!DOCTYPE svg PUBLIC "-//W3C//DTD SVG 1.1//EN" "http://www.w3.org/Graphics/SVG/1.1/DTD/svg11.dtd">
<svg width="219pt" height="230pt" viewBox="0 0 219 230" version="1.1" xmlns="http://www.w3.org/2000/svg">
<g id="#ffffffff">
<path fill="#ffffff" opacity="1.00" d=" M 63.60 74.40 C 65.50 70.91 70.93 75.27 67.93 77.82 C 65.91 80.48 61.40 76.99 63.60 74.40 Z" />
<path fill="#ffffff" opacity="1.00" d=" M 108.38 86.42 C 109.89 85.55 111.98 86.35 112.38 88.07 C 113.34 89.89 110.71 92.50 108.89 91.32 C 106.59 90.80 106.42 87.47 108.38 86.42 Z" />
</g>
<g id="#000000ff">
<path fill="#000000" opacity="1.00" d=" M 138.33 0.00 L 138.99 0.00 C 141.71 6.62 141.99 13.93 142.02 20.99 C 141.56 31.09 140.67 41.21 138.51 51.11 C 136.48 60.77 133.85 70.58 128.26 78.85 C 129.42 90.20 123.56 100.82 123.94 112.16 C 131.99 107.74 141.47 105.72 150.58 106.73 C 150.36 107.71 150.15 108.70 149.94 109.68 C 151.81 111.15 153.58 112.77 155.12 114.60 C 154.53 114.75 153.34 115.05 152.75 115.20 C 152.98 115.94 153.20 116.69 153.43 117.43 C 152.19 119.46 150.14 121.47 150.64 124.03 C 149.11 124.01 147.59 123.99 146.06 123.98 L 145.98 125.21 C 147.15 125.43 148.33 125.65 149.51 125.88 C 149.03 123.84 151.56 124.37 151.55 125.85 C 170.32 126.33 188.85 130.42 206.50 136.71 C 210.82 138.24 215.01 140.13 219.00 142.37 L 219.00 142.54 C 209.47 152.32 199.54 161.71 190.24 171.72 C 177.25 167.86 164.19 164.23 151.26 160.18 C 146.76 167.29 142.73 174.68 138.39 181.89 C 135.38 181.01 132.38 180.10 129.40 179.15 C 129.07 184.84 128.52 190.51 128.09 196.20 C 124.13 195.10 120.20 193.86 116.23 192.78 C 118.58 200.11 120.19 209.56 113.61 215.28 C 119.85 217.97 126.40 220.92 131.04 226.03 C 131.03 226.71 131.00 228.06 130.99 228.74 C 129.81 229.20 128.61 229.62 127.40 230.00 L 126.58 230.00 C 117.73 227.18 108.73 224.85 99.58 223.22 C 97.45 223.13 96.13 221.52 96.00 219.46 C 86.90 218.41 77.96 216.39 68.96 214.78 C 61.59 212.85 54.02 214.81 46.58 215.14 C 46.13 217.83 43.67 219.26 41.12 219.40 C 31.77 220.71 22.29 223.44 12.82 221.99 C 12.57 221.01 12.33 220.05 12.09 219.08 C 15.99 214.75 21.76 213.24 26.98 211.14 C 20.99 207.03 19.22 198.87 21.43 192.21 C 26.07 178.51 30.87 164.87 35.62 151.20 C 29.23 149.47 23.60 144.74 21.72 138.27 C 19.40 131.77 23.11 124.29 29.04 121.19 C 34.27 118.29 40.48 117.93 46.31 118.59 C 42.63 110.90 38.70 102.70 39.49 93.93 C 39.93 88.33 44.99 84.81 46.91 79.80 C 49.64 72.44 52.87 65.17 57.42 58.73 C 47.17 56.77 38.21 51.00 29.72 45.22 C 18.14 36.95 7.46 26.97 0.00 14.75 L 0.00 14.45 C 17.93 16.06 34.54 24.13 49.78 33.28 C 57.09 37.89 63.95 43.31 69.59 49.89 C 86.71 46.13 105.42 51.08 118.45 62.82 C 117.92 51.98 120.45 41.28 123.31 30.90 C 126.69 19.95 130.75 8.81 138.33 0.00 M 128.36 19.50 C 125.28 26.45 123.34 33.84 121.56 41.22 C 120.09 48.58 118.62 56.08 119.29 63.63 C 120.98 65.26 122.61 66.96 123.99 68.86 C 123.12 68.52 122.23 68.16 121.62 67.40 C 115.27 60.36 106.99 55.11 98.00 52.12 C 87.92 49.47 77.12 48.91 66.99 51.60 C 67.34 50.89 67.69 50.17 68.04 49.46 C 56.17 37.00 40.96 28.16 25.08 21.81 C 24.46 26.74 24.97 31.76 25.99 36.60 C 26.40 39.26 26.98 42.30 29.48 43.82 C 37.53 49.66 46.23 55.01 55.91 57.61 C 57.15 57.84 59.02 58.56 59.56 56.79 L 60.03 57.16 C 57.13 60.62 54.44 64.30 52.54 68.41 C 50.46 73.15 48.99 78.15 46.47 82.70 C 51.13 84.26 51.74 89.90 51.67 94.09 C 51.60 99.67 48.59 106.70 42.16 106.91 C 43.73 110.89 45.45 114.81 47.49 118.58 C 54.70 119.45 61.85 122.02 67.44 126.76 C 68.82 128.02 70.69 128.37 72.42 128.90 C 72.16 129.59 71.64 130.97 71.38 131.65 C 72.08 131.98 73.46 132.64 74.16 132.97 C 74.41 134.11 74.40 135.27 73.98 136.37 C 73.46 136.23 72.43 135.95 71.91 135.81 C 72.45 136.92 73.03 138.01 73.65 139.08 C 72.97 139.28 71.60 139.66 70.92 139.85 C 71.31 140.92 71.72 141.97 72.17 143.01 C 71.24 143.01 69.38 143.01 68.45 143.01 C 68.55 143.81 68.75 145.40 68.86 146.19 C 67.55 146.05 66.29 145.75 65.07 145.28 C 56.38 149.99 46.42 152.66 36.51 151.16 C 32.33 165.30 26.69 178.98 22.13 193.01 C 20.45 198.05 21.74 203.57 24.58 207.94 L 24.94 207.20 L 24.71 208.02 C 26.93 209.80 29.12 211.82 31.95 212.55 C 33.07 213.00 34.49 212.99 35.28 214.03 C 34.64 214.02 33.35 213.99 32.70 213.97 C 31.15 213.24 29.59 212.50 27.95 211.97 C 25.28 212.31 22.86 213.68 20.36 214.63 L 21.36 215.13 C 19.06 214.69 16.17 216.41 16.57 219.11 C 15.97 218.57 15.35 218.04 14.73 217.51 L 13.54 219.37 L 15.95 218.59 C 15.33 219.04 14.09 219.93 13.47 220.38 C 14.57 222.71 16.78 218.98 18.60 220.02 C 17.99 220.52 16.75 221.53 16.13 222.03 C 18.68 221.79 21.24 221.53 23.74 220.91 C 30.54 220.11 37.71 220.07 44.12 217.47 C 44.47 216.90 45.17 215.77 45.52 215.21 C 43.51 215.39 41.52 215.60 39.51 215.73 C 39.73 215.52 40.17 215.09 40.39 214.88 C 49.67 213.97 58.95 213.11 68.25 212.46 C 69.60 214.05 71.96 213.96 73.78 214.75 C 81.89 215.85 89.90 217.63 98.02 218.71 C 101.66 219.10 105.21 218.05 108.77 217.46 C 108.66 217.68 108.44 218.12 108.33 218.34 C 104.66 219.81 100.57 219.38 96.69 219.81 C 97.78 222.97 101.66 222.55 104.29 223.32 C 111.35 225.12 118.59 226.28 125.43 228.87 C 127.05 230.10 126.88 227.64 127.79 227.11 C 128.38 227.50 129.57 228.27 130.16 228.65 C 129.18 225.60 124.20 225.39 124.89 221.32 C 124.84 223.16 124.86 225.01 125.29 226.82 C 123.06 224.54 119.45 224.27 117.46 221.77 C 119.61 222.08 121.54 223.09 123.18 224.49 C 124.28 222.93 121.71 217.79 119.91 221.34 L 120.74 219.32 C 119.78 218.93 118.81 218.53 117.85 218.12 L 117.64 218.23 C 115.60 216.89 113.17 215.43 110.69 216.50 C 111.37 215.85 112.06 215.22 112.77 214.62 L 112.76 214.60 C 116.76 211.46 118.28 205.96 117.19 201.09 C 115.52 193.71 112.47 186.68 111.10 179.22 C 110.32 172.33 110.64 165.37 111.13 158.47 L 109.64 159.42 C 109.49 159.16 109.18 158.64 109.03 158.38 C 121.24 151.59 131.84 142.03 140.14 130.81 C 142.70 128.76 143.81 125.43 145.98 123.02 C 146.95 123.10 148.89 123.25 149.86 123.33 C 149.64 122.73 149.21 121.53 148.99 120.93 C 149.48 120.86 150.46 120.72 150.95 120.65 C 150.30 118.98 150.69 117.81 152.51 117.53 C 152.27 116.99 151.78 115.92 151.54 115.38 C 152.06 114.75 152.58 114.12 153.11 113.49 C 152.07 112.64 151.03 111.79 149.98 110.95 C 149.81 111.75 149.46 113.34 149.29 114.14 C 147.89 112.15 149.42 109.42 149.42 107.23 C 140.76 107.47 131.59 108.39 124.18 113.29 C 122.99 116.88 122.05 120.70 119.37 123.55 C 113.76 129.84 106.01 134.58 97.63 135.88 C 102.63 133.75 107.88 131.94 112.14 128.43 C 109.99 128.07 108.58 126.27 108.04 124.30 C 107.31 119.63 109.89 115.22 112.92 111.88 C 115.47 109.03 119.30 106.92 123.21 107.98 C 123.86 100.48 126.13 93.27 127.47 85.89 C 128.15 82.45 127.16 79.01 126.86 75.58 L 128.49 77.10 C 133.94 67.00 137.33 55.74 138.49 44.34 C 139.22 40.92 139.93 37.44 139.96 33.94 C 137.59 28.14 133.55 23.02 128.36 19.50 M 45.49 84.31 C 43.89 86.47 42.38 88.71 41.14 91.10 C 39.26 95.96 40.48 101.37 42.13 106.12 C 44.09 105.69 46.17 105.07 47.45 103.41 C 51.16 98.69 51.78 91.87 49.41 86.41 C 48.71 85.13 47.06 83.10 45.49 84.31 M 115.81 110.69 C 111.74 113.79 108.25 118.74 109.02 124.10 C 109.15 126.29 111.47 127.14 113.06 128.13 C 119.09 123.69 123.94 116.83 123.06 108.99 C 120.53 108.20 117.78 108.98 115.81 110.69 M 32.98 120.57 C 27.36 122.16 22.57 126.97 22.04 132.93 C 21.49 136.77 23.54 140.20 25.19 143.48 L 25.35 143.36 C 28.21 146.95 32.33 149.87 37.01 150.27 C 46.71 151.66 56.53 148.84 65.01 144.19 C 65.94 144.52 66.87 144.86 67.80 145.20 C 67.08 142.97 68.18 141.16 70.77 141.97 C 69.48 140.24 69.60 138.08 72.40 138.64 C 71.96 137.95 71.08 136.57 70.65 135.88 C 71.41 135.57 72.93 134.95 73.70 134.64 C 72.61 133.61 71.51 132.61 70.37 131.66 C 70.49 131.00 70.74 129.68 70.86 129.03 C 67.60 129.25 65.68 126.09 63.01 124.76 C 54.11 119.57 42.94 117.53 32.98 120.57 M 138.43 135.39 C 136.07 146.17 134.04 157.02 131.70 167.81 C 127.51 167.11 123.38 166.08 119.16 165.63 L 118.38 165.27 C 119.28 170.79 119.17 176.48 120.90 181.85 C 121.38 181.17 121.84 180.48 122.29 179.79 C 122.76 180.38 123.71 181.56 124.18 182.15 C 122.81 182.27 121.52 182.71 120.30 183.34 C 120.41 184.22 120.63 186.00 120.74 186.89 C 118.36 186.19 115.98 185.50 113.59 184.83 C 114.19 187.20 114.99 189.52 115.95 191.77 C 119.71 192.69 123.42 193.81 127.11 194.97 C 127.42 190.73 128.58 186.37 127.69 182.15 L 127.20 182.17 C 127.46 181.88 127.98 181.31 128.24 181.03 C 128.56 180.02 128.79 178.98 128.92 177.94 C 131.84 179.01 134.87 179.79 137.81 180.83 C 142.28 173.72 146.28 166.33 150.64 159.15 C 162.98 162.50 175.11 166.70 187.56 169.62 C 188.31 170.03 189.07 170.41 189.85 170.76 C 198.89 161.17 208.61 152.22 217.53 142.52 C 203.83 135.70 188.91 131.76 173.94 128.95 C 164.49 127.00 154.79 127.24 145.25 126.11 C 142.99 129.21 140.35 132.07 138.43 135.39 M 112.47 157.40 C 111.92 166.11 110.35 175.15 113.13 183.64 C 115.36 184.23 117.57 184.91 119.78 185.61 C 118.74 178.52 118.21 171.36 117.26 164.26 C 121.77 165.05 126.29 165.76 130.74 166.84 C 133.07 156.84 134.99 146.74 137.08 136.69 C 129.73 144.51 121.83 152.03 112.47 157.40 Z" />
<path fill="#000000" opacity="1.00" d=" M 63.43 71.51 C 67.23 70.66 70.80 74.17 70.39 77.97 C 70.49 83.59 62.84 87.41 58.70 83.30 C 54.50 79.37 57.76 71.57 63.43 71.51 M 63.60 74.40 C 61.40 76.99 65.91 80.48 67.93 77.82 C 70.93 75.27 65.50 70.91 63.60 74.40 Z" />
<path fill="#000000" opacity="1.00" d=" M 107.45 85.57 C 112.12 83.10 117.78 88.19 116.87 93.12 C 116.56 97.34 111.52 100.63 107.69 98.31 C 102.55 96.13 102.38 87.97 107.45 85.57 M 108.38 86.42 C 106.42 87.47 106.59 90.80 108.89 91.32 C 110.71 92.50 113.34 89.89 112.38 88.07 C 111.98 86.35 109.89 85.55 108.38 86.42 Z" />
<path fill="#000000" opacity="1.00" d=" M 83.13 87.15 C 84.25 86.26 86.36 86.86 86.76 88.27 C 86.29 90.19 82.23 89.08 83.13 87.15 Z" />
<path fill="#000000" opacity="1.00" d=" M 67.90 91.05 C 69.20 92.01 70.13 93.79 71.90 93.84 C 75.96 94.19 79.93 92.93 83.97 92.76 C 88.21 96.08 92.96 101.77 98.93 99.64 C 99.00 99.95 99.14 100.55 99.20 100.86 C 98.53 100.97 97.18 101.19 96.50 101.30 C 93.83 107.60 90.17 113.50 85.70 118.68 C 82.81 121.87 78.85 125.13 74.24 124.07 C 71.69 121.38 70.64 117.72 70.11 114.13 C 69.34 107.63 69.46 101.06 69.95 94.54 C 69.02 93.53 68.39 92.32 67.90 91.05 M 71.06 94.92 C 71.00 95.87 70.87 97.77 70.81 98.72 C 78.76 95.13 89.05 98.03 93.06 106.00 C 93.91 104.51 94.64 102.96 95.23 101.35 C 90.89 99.86 87.17 97.13 83.91 93.96 C 79.59 93.92 75.40 95.38 71.06 94.92 M 71.68 99.75 C 69.55 100.29 70.51 102.81 70.26 104.32 C 70.60 109.90 70.65 115.77 73.17 120.88 C 74.06 123.09 76.83 123.94 78.90 122.83 C 84.14 120.19 87.52 115.12 90.70 110.38 C 91.37 109.09 92.59 107.74 91.80 106.20 C 88.36 99.03 78.67 96.06 71.68 99.75 Z" />
<path fill="#000000" opacity="1.00" d=" M 21.36 215.13 C 21.79 215.27 22.64 215.55 23.07 215.69 C 21.98 216.67 20.71 217.22 19.28 217.35 C 19.80 216.80 20.84 215.68 21.36 215.13 Z" />
<path fill="#000000" opacity="1.00" d=" M 17.93 217.26 C 18.58 217.86 18.58 217.86 17.93 217.26 Z" />
<path fill="#000000" opacity="1.00" d=" M 17.43 219.47 C 20.09 218.45 22.78 217.47 25.58 216.88 C 23.75 218.81 20.99 219.15 18.60 220.02 L 17.43 219.47 Z" />
<path fill="#000000" opacity="1.00" d=" M 121.05 221.20 C 121.66 221.84 121.66 221.84 121.05 221.20 Z" />
</g>
<g id="#f8d326ff">
<path fill="#f8d326" opacity="1.00" d=" M 128.36 19.50 C 133.55 23.02 137.59 28.14 139.96 33.94 C 139.93 37.44 139.22 40.92 138.49 44.34 C 134.91 52.25 132.47 60.65 128.43 68.36 C 127.21 70.56 126.37 73.04 126.86 75.58 C 127.16 79.01 128.15 82.45 127.47 85.89 C 126.13 93.27 123.86 100.48 123.21 107.98 C 119.30 106.92 115.47 109.03 112.92 111.88 C 109.89 115.22 107.31 119.63 108.04 124.30 C 108.58 126.27 109.99 128.07 112.14 128.43 C 107.88 131.94 102.63 133.75 97.63 135.88 C 106.01 134.58 113.76 129.84 119.37 123.55 C 122.05 120.70 122.99 116.88 124.18 113.29 C 131.59 108.39 140.76 107.47 149.42 107.23 C 149.42 109.42 147.89 112.15 149.29 114.14 C 149.46 113.34 149.81 111.75 149.98 110.95 C 151.03 111.79 152.07 112.64 153.11 113.49 C 152.58 114.12 152.06 114.75 151.54 115.38 C 151.78 115.92 152.27 116.99 152.51 117.53 C 150.69 117.81 150.30 118.98 150.95 120.65 C 150.46 120.72 149.48 120.86 148.99 120.93 C 149.21 121.53 149.64 122.73 149.86 123.33 C 148.89 123.25 146.95 123.10 145.98 123.02 C 143.81 125.43 142.70 128.76 140.14 130.81 C 132.51 134.68 125.68 139.90 118.33 144.25 C 112.68 147.55 107.89 153.07 107.22 159.78 C 108.03 159.66 108.83 159.54 109.64 159.42 L 111.13 158.47 C 110.64 165.37 110.32 172.33 111.10 179.22 C 112.47 186.68 115.52 193.71 117.19 201.09 C 118.28 205.96 116.76 211.46 112.76 214.60 C 108.38 208.02 100.46 205.33 92.96 204.39 C 84.99 203.61 76.85 203.32 68.99 205.11 C 61.81 206.63 54.41 207.41 47.11 206.33 C 40.85 205.93 35.18 202.87 29.01 202.11 C 26.03 201.74 25.58 205.10 24.94 207.20 L 24.58 207.94 C 21.74 203.57 20.45 198.05 22.13 193.01 C 26.69 178.98 32.33 165.30 36.51 151.16 C 46.42 152.66 56.38 149.99 65.07 145.28 C 66.29 145.75 67.55 146.05 68.86 146.19 C 68.75 145.40 68.55 143.81 68.45 143.01 C 69.38 143.01 71.24 143.01 72.17 143.01 C 71.72 141.97 71.31 140.92 70.92 139.85 C 71.60 139.66 72.97 139.28 73.65 139.08 C 73.03 138.01 72.45 136.92 71.91 135.81 C 72.43 135.95 73.46 136.23 73.98 136.37 C 75.04 137.81 76.01 139.82 78.09 139.84 C 81.58 139.38 84.50 137.23 87.32 135.29 C 82.95 134.44 78.51 133.94 74.16 132.97 C 73.46 132.64 72.08 131.98 71.38 131.65 C 71.64 130.97 72.16 129.59 72.42 128.90 C 70.69 128.37 68.82 128.02 67.44 126.76 C 61.85 122.02 54.70 119.45 47.49 118.58 C 45.45 114.81 43.73 110.89 42.16 106.91 C 48.59 106.70 51.60 99.67 51.67 94.09 C 51.74 89.90 51.13 84.26 46.47 82.70 C 48.99 78.15 50.46 73.15 52.54 68.41 C 54.44 64.30 57.13 60.62 60.03 57.16 L 59.56 56.79 C 55.79 53.61 51.36 51.41 47.20 48.83 C 40.12 44.77 33.28 40.28 25.99 36.60 C 24.97 31.76 24.46 26.74 25.08 21.81 C 40.96 28.16 56.17 37.00 68.04 49.46 C 67.69 50.17 67.34 50.89 66.99 51.60 C 77.12 48.91 87.92 49.47 98.00 52.12 C 106.99 55.11 115.27 60.36 121.62 67.40 C 122.23 68.16 123.12 68.52 123.99 68.86 C 122.61 66.96 120.98 65.26 119.29 63.63 C 118.62 56.08 120.09 48.58 121.56 41.22 C 123.34 33.84 125.28 26.45 128.36 19.50 M 63.43 71.51 C 57.76 71.57 54.50 79.37 58.70 83.30 C 62.84 87.41 70.49 83.59 70.39 77.97 C 70.80 74.17 67.23 70.66 63.43 71.51 M 107.45 85.57 C 102.38 87.97 102.55 96.13 107.69 98.31 C 111.52 100.63 116.56 97.34 116.87 93.12 C 117.78 88.19 112.12 83.10 107.45 85.57 M 83.13 87.15 C 82.23 89.08 86.29 90.19 86.76 88.27 C 86.36 86.86 84.25 86.26 83.13 87.15 M 67.90 91.05 C 68.39 92.32 69.02 93.53 69.95 94.54 C 69.46 101.06 69.34 107.63 70.11 114.13 C 70.64 117.72 71.69 121.38 74.24 124.07 C 78.85 125.13 82.81 121.87 85.70 118.68 C 90.17 113.50 93.83 107.60 96.50 101.30 C 97.18 101.19 98.53 100.97 99.20 100.86 C 99.14 100.55 99.00 99.95 98.93 99.64 C 92.96 101.77 88.21 96.08 83.97 92.76 C 79.93 92.93 75.96 94.19 71.90 93.84 C 70.13 93.79 69.20 92.01 67.90 91.05 Z" />
<path fill="#f8d326" opacity="1.00" d=" M 32.98 120.57 C 42.94 117.53 54.11 119.57 63.01 124.76 C 65.68 126.09 67.60 129.25 70.86 129.03 C 70.74 129.68 70.49 131.00 70.37 131.66 C 71.51 132.61 72.61 133.61 73.70 134.64 C 72.93 134.95 71.41 135.57 70.65 135.88 C 71.08 136.57 71.96 137.95 72.40 138.64 C 69.60 138.08 69.48 140.24 70.77 141.97 C 68.18 141.16 67.08 142.97 67.80 145.20 C 66.87 144.86 65.94 144.52 65.01 144.19 C 61.23 142.33 57.24 144.87 53.30 144.49 C 45.17 143.84 37.10 142.52 28.96 141.91 C 27.54 141.77 26.33 142.25 25.35 143.36 L 25.19 143.48 C 23.54 140.20 21.49 136.77 22.04 132.93 C 22.57 126.97 27.36 122.16 32.98 120.57 Z" />
<path fill="#f8d326" opacity="1.00" d=" M 138.43 135.39 C 140.35 132.07 142.99 129.21 145.25 126.11 C 154.79 127.24 164.49 127.00 173.94 128.95 C 188.91 131.76 203.83 135.70 217.53 142.52 C 208.61 152.22 198.89 161.17 189.85 170.76 C 189.07 170.41 188.31 170.03 187.56 169.62 C 186.46 168.32 185.46 166.92 184.20 165.77 C 172.08 155.63 157.90 148.48 144.03 141.09 C 141.72 147.08 140.97 153.50 139.52 159.72 C 138.09 165.80 136.92 171.94 135.65 178.06 C 130.01 174.10 124.62 169.81 119.16 165.63 C 123.38 166.08 127.51 167.11 131.70 167.81 C 134.04 157.02 136.07 146.17 138.43 135.39 Z" />
<path fill="#f8d326" opacity="1.00" d=" M 20.36 214.63 C 22.86 213.68 25.28 212.31 27.95 211.97 C 29.59 212.50 31.15 213.24 32.70 213.97 C 29.81 216.40 26.85 218.76 23.74 220.91 C 21.24 221.53 18.68 221.79 16.13 222.03 C 16.75 221.53 17.99 220.52 18.60 220.02 C 20.99 219.15 23.75 218.81 25.58 216.88 C 22.78 217.47 20.09 218.45 17.43 219.47 L 18.60 220.02 C 16.78 218.98 14.57 222.71 13.47 220.38 C 14.09 219.93 15.33 219.04 15.95 218.59 L 13.54 219.37 L 14.73 217.51 C 15.35 218.04 15.97 218.57 16.57 219.11 C 16.17 216.41 19.06 214.69 21.36 215.13 C 20.84 215.68 19.80 216.80 19.28 217.35 C 20.71 217.22 21.98 216.67 23.07 215.69 C 22.64 215.55 21.79 215.27 21.36 215.13 L 20.36 214.63 M 17.93 217.26 C 18.58 217.86 18.58 217.86 17.93 217.26 Z" />
<path fill="#f8d326" opacity="1.00" d=" M 117.64 218.23 L 117.85 218.12 C 118.81 218.53 119.78 218.93 120.74 219.32 L 119.91 221.34 C 121.71 217.79 124.28 222.93 123.18 224.49 C 121.54 223.09 119.61 222.08 117.46 221.77 C 119.45 224.27 123.06 224.54 125.29 226.82 C 124.86 225.01 124.84 223.16 124.89 221.32 C 124.20 225.39 129.18 225.60 130.16 228.65 C 129.57 228.27 128.38 227.50 127.79 227.11 C 126.88 227.64 127.05 230.10 125.43 228.87 C 118.59 226.28 111.35 225.12 104.29 223.32 C 108.16 220.21 113.47 220.70 117.64 218.23 M 121.05 221.20 C 121.66 221.84 121.66 221.84 121.05 221.20 Z" />
</g>
<g id="#e19722ff">
<path fill="#e19722" opacity="1.00" d=" M 25.99 36.60 C 33.28 40.28 40.12 44.77 47.20 48.83 C 51.36 51.41 55.79 53.61 59.56 56.79 C 59.02 58.56 57.15 57.84 55.91 57.61 C 46.23 55.01 37.53 49.66 29.48 43.82 C 26.98 42.30 26.40 39.26 25.99 36.60 Z" />
<path fill="#e19722" opacity="1.00" d=" M 128.43 68.36 C 132.47 60.65 134.91 52.25 138.49 44.34 C 137.33 55.74 133.94 67.00 128.49 77.10 L 126.86 75.58 C 126.37 73.04 127.21 70.56 128.43 68.36 Z" />
<path fill="#e19722" opacity="1.00" d=" M 118.33 144.25 C 125.68 139.90 132.51 134.68 140.14 130.81 C 131.84 142.03 121.24 151.59 109.03 158.38 C 109.18 158.64 109.49 159.16 109.64 159.42 C 108.83 159.54 108.03 159.66 107.22 159.78 C 107.89 153.07 112.68 147.55 118.33 144.25 Z" />
<path fill="#e19722" opacity="1.00" d=" M 74.16 132.97 C 78.51 133.94 82.95 134.44 87.32 135.29 C 84.50 137.23 81.58 139.38 78.09 139.84 C 76.01 139.82 75.04 137.81 73.98 136.37 C 74.40 135.27 74.41 134.11 74.16 132.97 Z" />
<path fill="#e19722" opacity="1.00" d=" M 144.03 141.09 C 157.90 148.48 172.08 155.63 184.20 165.77 C 185.46 166.92 186.46 168.32 187.56 169.62 C 175.11 166.70 162.98 162.50 150.64 159.15 C 146.28 166.33 142.28 173.72 137.81 180.83 C 134.87 179.79 131.84 179.01 128.92 177.94 C 128.79 178.98 128.56 180.02 128.24 181.03 C 127.98 181.31 127.46 181.88 127.20 182.17 C 126.89 182.50 126.27 183.16 125.96 183.48 C 125.95 182.47 125.93 180.45 125.92 179.44 C 125.60 180.16 124.96 181.59 124.64 182.31 L 124.18 182.15 C 123.71 181.56 122.76 180.38 122.29 179.79 C 121.84 180.48 121.38 181.17 120.90 181.85 C 119.17 176.48 119.28 170.79 118.38 165.27 L 119.16 165.63 C 124.62 169.81 130.01 174.10 135.65 178.06 C 136.92 171.94 138.09 165.80 139.52 159.72 C 140.97 153.50 141.72 147.08 144.03 141.09 Z" />
<path fill="#e19722" opacity="1.00" d=" M 25.35 143.36 C 26.33 142.25 27.54 141.77 28.96 141.91 C 37.10 142.52 45.17 143.84 53.30 144.49 C 57.24 144.87 61.23 142.33 65.01 144.19 C 56.53 148.84 46.71 151.66 37.01 150.27 C 32.33 149.87 28.21 146.95 25.35 143.36 Z" />
<path fill="#e19722" opacity="1.00" d=" M 24.94 207.20 C 25.58 205.10 26.03 201.74 29.01 202.11 C 35.18 202.87 40.85 205.93 47.11 206.33 C 54.41 207.41 61.81 206.63 68.99 205.11 C 76.85 203.32 84.99 203.61 92.96 204.39 C 100.46 205.33 108.38 208.02 112.76 214.60 L 112.77 214.62 C 112.06 215.22 111.37 215.85 110.69 216.50 C 113.17 215.43 115.60 216.89 117.64 218.23 C 113.47 220.70 108.16 220.21 104.29 223.32 C 101.66 222.55 97.78 222.97 96.69 219.81 C 100.57 219.38 104.66 219.81 108.33 218.34 C 108.44 218.12 108.66 217.68 108.77 217.46 C 105.21 218.05 101.66 219.10 98.02 218.71 C 89.90 217.63 81.89 215.85 73.78 214.75 C 71.96 213.96 69.60 214.05 68.25 212.46 C 58.95 213.11 49.67 213.97 40.39 214.88 C 40.17 215.09 39.73 215.52 39.51 215.73 C 41.52 215.60 43.51 215.39 45.52 215.21 C 45.17 215.77 44.47 216.90 44.12 217.47 C 37.71 220.07 30.54 220.11 23.74 220.91 C 26.85 218.76 29.81 216.40 32.70 213.97 C 33.35 213.99 34.64 214.02 35.28 214.03 C 34.49 212.99 33.07 213.00 31.95 212.55 C 29.12 211.82 26.93 209.80 24.71 208.02 L 24.94 207.20 Z" />
</g>
<g id="#f62d13ff">
<path fill="#f62d13" opacity="1.00" d=" M 45.49 84.31 C 47.06 83.10 48.71 85.13 49.41 86.41 C 51.78 91.87 51.16 98.69 47.45 103.41 C 46.17 105.07 44.09 105.69 42.13 106.12 C 40.48 101.37 39.26 95.96 41.14 91.10 C 42.38 88.71 43.89 86.47 45.49 84.31 Z" />
<path fill="#f62d13" opacity="1.00" d=" M 115.81 110.69 C 117.78 108.98 120.53 108.20 123.06 108.99 C 123.94 116.83 119.09 123.69 113.06 128.13 C 111.47 127.14 109.15 126.29 109.02 124.10 C 108.25 118.74 111.74 113.79 115.81 110.69 Z" />
</g>
<g id="#740b0aff">
<path fill="#740b0a" opacity="1.00" d=" M 71.06 94.92 C 75.40 95.38 79.59 93.92 83.91 93.96 C 87.17 97.13 90.89 99.86 95.23 101.35 C 94.64 102.96 93.91 104.51 93.06 106.00 C 89.05 98.03 78.76 95.13 70.81 98.72 C 70.87 97.77 71.00 95.87 71.06 94.92 Z" />
</g>
<g id="#a81729ff">
<path fill="#a81729" opacity="1.00" d=" M 71.68 99.75 C 78.67 96.06 88.36 99.03 91.80 106.20 C 92.59 107.74 91.37 109.09 90.70 110.38 C 88.39 107.12 85.88 103.56 81.93 102.23 C 77.91 101.20 73.88 102.68 70.26 104.32 C 70.51 102.81 69.55 100.29 71.68 99.75 Z" />
</g>
<g id="#ed5460ff">
<path fill="#ed5460" opacity="1.00" d=" M 70.26 104.32 C 73.88 102.68 77.91 101.20 81.93 102.23 C 85.88 103.56 88.39 107.12 90.70 110.38 C 87.52 115.12 84.14 120.19 78.90 122.83 C 76.83 123.94 74.06 123.09 73.17 120.88 C 70.65 115.77 70.60 109.90 70.26 104.32 Z" />
</g>
<g id="#811e08ff">
<path fill="#811e08" opacity="1.00" d=" M 124.64 182.31 C 124.96 181.59 125.60 180.16 125.92 179.44 C 125.93 180.45 125.95 182.47 125.96 183.48 C 126.27 183.16 126.89 182.50 127.20 182.17 L 127.69 182.15 C 128.58 186.37 127.42 190.73 127.11 194.97 C 123.42 193.81 119.71 192.69 115.95 191.77 C 114.99 189.52 114.19 187.20 113.59 184.83 C 115.98 185.50 118.36 186.19 120.74 186.89 C 120.63 186.00 120.41 184.22 120.30 183.34 C 121.52 182.71 122.81 182.27 124.18 182.15 L 124.64 182.31 Z" />
</g>
</svg>
