<?xml version="1.0" encoding="UTF-8" ?>
<!DOCTYPE svg PUBLIC "-//W3C//DTD SVG 1.1//EN" "http://www.w3.org/Graphics/SVG/1.1/DTD/svg11.dtd">
<svg width="226pt" height="223pt" viewBox="0 0 226 223" version="1.1" xmlns="http://www.w3.org/2000/svg">
<g id="#010000ff">
<path fill="#010000" opacity="1.00" d=" M 2.70 1.85 C 8.90 1.20 14.82 3.47 20.54 5.52 C 30.55 9.89 40.17 15.39 48.37 22.65 C 57.59 30.62 65.10 40.43 70.92 51.10 C 82.60 43.18 97.31 41.90 111.00 43.29 C 117.93 44.16 124.73 46.16 130.98 49.27 C 135.78 43.78 140.41 38.02 146.18 33.49 L 146.01 34.78 C 140.97 39.72 135.52 44.41 131.81 50.50 C 117.94 43.75 101.83 42.63 86.81 45.47 C 80.93 46.61 75.49 49.22 70.31 52.13 C 58.66 32.42 41.43 15.38 20.00 6.71 C 20.21 12.43 20.84 18.14 22.21 23.70 C 22.40 24.29 22.77 25.46 22.96 26.05 C 23.03 26.46 23.17 27.27 23.24 27.67 C 23.42 28.26 23.77 29.44 23.94 30.03 C 24.67 33.50 26.19 36.79 28.64 39.39 C 37.33 48.70 47.43 56.71 58.51 62.99 C 59.94 61.57 61.40 60.17 62.93 58.86 C 60.38 62.49 57.20 65.82 55.79 70.13 C 53.68 75.88 54.81 82.07 54.63 88.03 C 54.55 93.87 52.94 99.52 51.50 105.13 C 54.10 104.39 56.77 103.23 59.53 103.76 C 67.09 105.27 72.52 113.87 70.30 121.32 C 68.89 125.62 64.66 127.89 60.84 129.72 C 67.23 135.29 74.61 139.51 81.83 143.89 C 73.91 140.99 66.80 136.26 60.25 131.03 C 59.73 137.64 58.67 144.46 55.32 150.29 C 54.43 148.82 55.76 147.38 56.11 145.99 C 58.14 140.94 58.69 135.46 59.05 130.08 C 53.84 124.97 49.13 118.55 48.87 110.99 C 49.39 104.84 52.19 99.17 53.11 93.09 C 54.41 86.75 52.33 80.30 53.46 73.95 C 54.08 70.27 56.05 67.03 57.89 63.85 C 42.70 55.04 29.11 43.47 18.30 29.61 C 13.85 24.57 10.71 18.58 6.61 13.28 C 4.94 9.62 3.73 5.73 2.70 1.85 M 50.98 108.94 C 49.71 116.74 54.75 123.59 59.95 128.79 C 64.48 127.37 68.99 123.98 69.69 118.99 C 70.11 112.26 64.94 105.24 58.05 104.56 C 55.26 104.57 51.13 105.49 50.98 108.94 Z" />
<path fill="#010000" opacity="1.00" d=" M 169.35 17.37 C 179.61 12.49 190.68 7.60 202.32 8.86 C 199.08 19.29 192.39 28.19 185.27 36.30 C 174.26 47.61 160.83 56.23 146.69 63.09 C 147.78 64.77 148.88 66.44 149.99 68.11 C 160.66 62.39 171.68 57.32 182.93 52.87 C 196.27 47.24 210.07 42.53 224.34 39.93 C 224.36 42.60 224.34 45.28 224.15 47.94 L 222.48 47.16 C 222.68 46.18 223.10 44.21 223.31 43.22 C 222.81 42.66 222.29 42.12 221.75 41.60 C 220.98 41.88 219.44 42.44 218.67 42.72 C 194.88 48.21 172.55 58.42 150.65 68.97 C 153.14 77.89 152.54 87.21 153.47 96.33 C 153.05 96.25 152.21 96.09 151.79 96.01 C 151.85 88.02 152.11 79.85 149.95 72.08 C 148.84 67.72 146.17 64.04 143.85 60.27 C 144.66 60.89 145.48 61.51 146.31 62.12 C 156.50 57.22 166.16 51.16 174.87 43.94 C 176.62 42.58 177.75 40.62 178.38 38.52 C 180.93 30.23 182.57 21.68 183.52 13.06 C 169.92 16.99 157.76 24.76 147.04 33.86 C 146.97 32.31 148.08 31.24 149.24 30.39 C 150.35 30.24 151.13 29.64 151.58 28.59 C 157.27 24.51 162.95 20.32 169.35 17.37 Z" />
<path fill="#010000" opacity="1.00" d=" M 222.22 49.87 C 222.49 50.04 223.04 50.40 223.32 50.58 C 222.88 59.79 220.83 68.85 218.96 77.87 C 217.96 82.94 216.58 87.94 214.83 92.81 C 199.65 96.46 184.63 100.76 169.55 104.85 C 177.48 114.21 185.78 123.27 193.95 132.42 C 193.88 132.67 193.74 133.16 193.67 133.40 C 183.51 137.51 173.61 142.30 163.40 146.29 C 165.61 150.04 169.28 152.72 171.16 156.68 C 166.79 158.29 162.50 160.12 158.25 162.02 C 162.16 170.09 168.75 178.09 166.52 187.67 C 170.19 184.45 174.75 182.56 179.70 183.33 C 182.05 186.98 180.15 191.15 180.04 195.11 C 178.77 195.25 177.11 194.92 176.44 196.35 C 168.98 205.88 160.65 215.28 149.70 220.83 C 146.78 222.37 142.35 223.34 140.60 219.67 C 136.84 219.22 133.18 218.22 129.77 216.57 C 129.19 218.29 128.62 220.02 128.05 221.75 C 126.86 221.48 125.55 220.48 124.36 221.36 C 122.97 222.41 121.98 220.36 120.92 219.80 C 120.46 219.99 119.53 220.37 119.07 220.56 C 118.06 219.95 117.05 219.35 116.04 218.75 C 115.37 218.74 114.04 218.73 113.37 218.72 C 111.82 216.74 108.57 215.46 109.28 212.47 C 104.78 212.25 100.29 212.45 95.80 212.68 C 95.77 213.44 95.71 214.97 95.69 215.74 C 95.07 215.85 93.84 216.06 93.22 216.17 C 92.66 216.95 92.14 217.78 91.66 218.63 C 91.00 218.27 89.66 217.56 88.99 217.21 C 88.67 217.91 88.03 219.32 87.71 220.02 C 86.48 219.50 85.24 219.02 83.99 218.57 C 83.19 219.43 82.38 220.29 81.58 221.14 C 80.77 220.42 79.92 219.74 79.04 219.11 C 77.77 219.42 76.49 219.71 75.20 220.01 C 75.54 218.54 74.76 217.21 73.73 216.28 C 69.52 217.61 65.07 218.02 60.70 217.36 C 57.99 220.49 52.94 220.90 49.69 218.36 C 44.79 215.02 40.89 210.46 36.99 206.06 C 32.54 200.44 27.23 195.27 24.39 188.57 C 23.37 185.95 24.36 183.23 26.28 181.35 C 28.57 180.39 31.19 179.50 33.67 180.19 C 35.55 181.46 37.34 182.87 39.36 183.95 C 39.35 178.98 39.77 173.81 42.30 169.41 C 45.75 163.26 50.36 157.84 53.60 151.55 L 54.10 152.67 C 51.02 159.18 46.40 164.84 43.15 171.26 C 41.04 175.50 40.54 180.28 40.69 184.96 C 43.02 187.30 45.41 189.59 47.69 191.99 C 42.82 189.03 39.21 184.37 34.09 181.80 C 32.88 181.29 31.49 180.16 30.27 181.25 C 30.15 181.53 29.91 182.09 29.78 182.37 C 31.09 186.09 33.45 189.37 36.10 192.26 C 36.54 192.36 37.44 192.56 37.88 192.66 C 37.35 192.97 36.82 193.29 36.29 193.61 C 35.68 192.97 35.08 192.34 34.47 191.71 C 31.78 188.54 29.80 184.87 28.00 181.16 C 27.52 181.65 26.56 182.65 26.08 183.14 C 26.74 186.82 29.18 189.89 31.66 192.56 L 32.29 193.22 C 31.10 193.90 30.07 194.79 29.57 196.10 C 34.74 200.73 38.55 206.67 43.64 211.41 C 46.73 214.42 49.82 217.84 54.06 219.16 C 56.31 220.04 58.36 218.17 59.60 216.50 C 60.11 214.02 60.21 211.49 60.53 208.99 C 60.83 211.51 61.00 214.04 61.09 216.58 C 65.15 216.80 69.20 216.44 73.22 215.89 C 70.33 210.87 66.04 206.85 63.13 201.83 C 58.72 194.56 54.77 186.40 55.19 177.68 C 58.08 191.97 65.44 205.26 75.53 215.72 C 75.76 216.81 75.97 217.91 76.18 219.02 C 77.27 218.73 78.35 218.45 79.44 218.17 C 79.94 218.63 80.94 219.55 81.45 220.01 C 82.36 219.08 83.28 218.15 84.20 217.23 C 85.13 217.83 86.07 218.43 87.00 219.04 C 87.71 218.02 88.42 217.01 89.14 216.00 C 89.59 216.27 90.51 216.82 90.96 217.10 C 92.22 216.25 93.49 215.40 94.77 214.58 C 95.51 204.06 96.83 193.54 96.12 182.98 C 95.88 174.10 93.79 165.46 92.23 156.77 C 96.70 167.60 97.44 179.53 97.60 191.11 C 97.54 197.91 96.80 204.67 95.93 211.40 C 100.95 211.20 105.98 211.18 111.01 211.29 C 110.09 204.57 109.22 197.80 109.53 191.01 C 110.06 179.03 111.28 166.70 116.77 155.84 C 112.89 170.88 109.34 186.37 110.82 202.01 C 111.42 206.22 112.48 210.66 110.50 214.69 C 111.85 215.83 113.12 217.05 114.32 218.34 C 118.72 218.48 122.91 220.74 127.33 219.87 C 129.16 215.20 132.65 211.51 135.18 207.25 C 141.89 196.37 147.02 184.46 149.75 171.96 C 149.92 182.24 145.12 191.66 140.60 200.60 C 137.76 205.95 134.21 210.87 130.81 215.86 C 133.53 216.98 136.26 218.22 139.21 218.58 C 140.96 217.16 141.66 214.87 142.79 212.97 C 142.24 215.04 141.65 217.10 141.06 219.16 C 143.08 220.56 145.65 221.48 147.95 220.11 C 157.47 215.38 165.33 207.82 171.95 199.60 C 174.28 196.96 176.81 194.47 178.69 191.46 C 179.17 190.50 179.61 189.52 180.06 188.55 C 179.41 188.64 178.13 188.82 177.49 188.91 C 178.31 187.54 178.98 186.08 179.62 184.62 C 175.07 185.76 174.05 191.23 170.46 193.79 L 169.83 193.86 C 172.59 190.85 175.15 187.58 176.46 183.66 C 168.51 186.09 162.78 192.40 155.92 196.73 C 158.60 193.50 162.16 191.21 165.12 188.29 C 166.74 180.09 162.59 172.27 158.76 165.32 C 152.88 155.09 148.25 143.90 147.17 132.05 C 139.83 138.19 131.50 143.46 122.14 145.85 C 131.14 141.64 140.64 137.30 147.24 129.62 C 143.20 129.68 138.27 129.01 136.17 125.04 C 132.00 116.38 139.65 105.32 148.98 105.06 C 151.05 105.28 152.87 106.37 154.77 107.14 C 153.98 104.22 153.24 101.29 152.51 98.37 C 152.97 97.66 153.44 96.95 153.92 96.25 C 154.30 99.79 155.33 103.20 156.22 106.64 C 156.75 110.46 156.87 114.38 156.12 118.18 C 155.53 120.04 154.76 121.84 154.04 123.66 C 158.03 126.33 162.05 128.95 166.02 131.65 C 162.62 133.62 159.39 135.90 155.74 137.40 C 157.97 134.75 161.28 133.45 164.05 131.49 C 160.18 129.33 156.71 126.39 152.53 124.81 C 152.22 126.44 152.48 128.10 152.70 129.73 C 151.44 129.36 150.16 129.04 148.88 128.76 C 148.10 132.43 148.71 136.16 148.94 139.85 C 151.08 139.09 153.29 138.50 155.37 137.57 C 153.66 139.02 151.41 139.92 149.99 141.66 C 151.00 145.83 152.40 149.95 154.43 153.73 L 155.91 153.40 C 155.60 153.66 154.96 154.17 154.64 154.42 C 155.64 156.69 156.83 158.85 157.99 161.04 C 161.86 159.45 165.70 157.79 169.48 156.00 C 167.80 153.69 165.93 151.53 164.07 149.37 C 163.38 148.29 162.69 147.21 162.02 146.12 C 171.96 141.53 181.96 137.06 191.88 132.42 C 183.92 123.01 175.48 114.00 167.78 104.36 C 183.11 99.96 198.44 95.51 213.93 91.73 C 218.26 78.15 220.56 63.99 222.22 49.87 M 148.27 106.03 C 139.88 106.96 133.79 116.94 137.14 124.78 C 139.31 129.06 145.45 129.65 149.28 127.37 C 153.78 122.53 155.25 115.65 155.02 109.21 C 153.05 107.71 150.99 105.58 148.27 106.03 M 24.64 185.14 C 25.09 188.06 26.57 190.65 27.67 193.34 C 28.73 193.04 29.78 192.69 30.75 192.16 C 28.05 190.45 26.90 187.29 24.64 185.14 Z" />
<path fill="#010000" opacity="1.00" d=" M 67.29 83.26 C 70.96 80.10 77.26 80.68 80.20 84.56 C 82.51 87.24 82.51 91.19 81.50 94.39 C 81.49 94.42 81.46 94.49 81.44 94.53 C 79.32 99.85 71.97 102.13 67.41 98.49 C 62.36 95.10 62.55 86.86 67.29 83.26 M 74.32 83.21 C 71.90 84.08 71.37 87.38 72.60 89.41 C 74.07 92.38 79.85 91.44 79.84 87.90 C 80.84 84.79 77.15 82.01 74.32 83.21 Z" />
<path fill="#010000" opacity="1.00" d=" M 123.48 94.40 C 120.91 88.52 125.08 80.38 132.01 81.07 C 139.71 81.00 144.10 91.38 138.93 96.93 C 134.83 101.90 126.07 100.34 123.54 94.53 C 123.53 94.50 123.50 94.43 123.48 94.40 M 124.63 85.96 C 125.10 87.58 125.44 89.29 126.36 90.74 C 127.98 91.25 129.91 91.23 131.47 90.50 C 134.36 88.38 132.80 82.76 129.06 82.96 C 127.02 82.73 125.98 84.84 124.63 85.96 Z" />
<path fill="#010000" opacity="1.00" d=" M 100.09 98.53 C 102.09 96.95 104.72 97.65 107.02 97.95 C 105.08 99.89 102.37 100.13 100.09 98.53 Z" />
<path fill="#010000" opacity="1.00" d=" M 91.11 112.02 C 95.52 112.64 99.36 109.96 103.22 108.30 C 107.15 109.66 110.66 112.49 114.97 112.51 C 117.37 112.37 119.09 110.55 121.00 109.31 C 119.85 112.44 116.29 114.68 112.96 113.93 C 109.65 113.25 106.83 111.32 103.80 109.94 C 101.17 110.60 99.05 112.70 96.31 113.19 C 92.64 114.44 87.93 113.56 86.07 109.85 C 87.76 110.54 89.32 111.58 91.11 112.02 Z" />
</g>
<g id="#ffd924ff">
<path fill="#ffd924" opacity="1.00" d=" M 20.00 6.71 C 41.43 15.38 58.66 32.42 70.31 52.13 C 75.49 49.22 80.93 46.61 86.81 45.47 C 101.83 42.63 117.94 43.75 131.81 50.50 C 135.52 44.41 140.97 39.72 146.01 34.78 C 146.27 34.55 146.78 34.09 147.04 33.86 C 157.76 24.76 169.92 16.99 183.52 13.06 C 182.57 21.68 180.93 30.23 178.38 38.52 C 177.75 40.62 176.62 42.58 174.87 43.94 C 166.16 51.16 156.50 57.22 146.31 62.12 C 145.48 61.51 144.66 60.89 143.85 60.27 C 146.17 64.04 148.84 67.72 149.95 72.08 C 152.11 79.85 151.85 88.02 151.79 96.01 C 152.21 96.09 153.05 96.25 153.47 96.33 C 152.54 87.21 153.14 77.89 150.65 68.97 C 172.55 58.42 194.88 48.21 218.67 42.72 L 221.16 42.11 C 221.60 42.84 222.05 43.57 222.49 44.31 C 222.33 46.16 222.31 48.01 222.22 49.87 C 220.56 63.99 218.26 78.15 213.93 91.73 C 198.44 95.51 183.11 99.96 167.78 104.36 C 175.48 114.00 183.92 123.01 191.88 132.42 C 181.96 137.06 171.96 141.53 162.02 146.12 C 162.69 147.21 163.38 148.29 164.07 149.37 C 162.69 148.88 161.34 148.34 160.02 147.75 C 158.69 145.76 156.79 148.22 158.88 149.19 C 158.97 149.65 159.16 150.56 159.25 151.01 C 158.15 150.56 157.05 150.11 155.95 149.67 C 156.25 150.71 156.55 151.76 156.86 152.81 L 155.91 153.40 L 154.43 153.73 C 152.40 149.95 151.00 145.83 149.99 141.66 C 151.41 139.92 153.66 139.02 155.37 137.57 C 155.46 137.53 155.65 137.44 155.74 137.40 C 159.39 135.90 162.62 133.62 166.02 131.65 C 162.05 128.95 158.03 126.33 154.04 123.66 C 154.76 121.84 155.53 120.04 156.12 118.18 C 157.50 114.45 157.29 110.41 156.22 106.64 C 155.33 103.20 154.30 99.79 153.92 96.25 C 153.44 96.95 152.97 97.66 152.51 98.37 C 153.24 101.29 153.98 104.22 154.77 107.14 C 152.87 106.37 151.05 105.28 148.98 105.06 C 139.65 105.32 132.00 116.38 136.17 125.04 C 138.27 129.01 143.20 129.68 147.24 129.62 C 140.64 137.30 131.14 141.64 122.14 145.85 C 131.50 143.46 139.83 138.19 147.17 132.05 C 148.25 143.90 152.88 155.09 158.76 165.32 C 162.59 172.27 166.74 180.09 165.12 188.29 C 162.16 191.21 158.60 193.50 155.92 196.73 C 162.78 192.40 168.51 186.09 176.46 183.66 C 175.15 187.58 172.59 190.85 169.83 193.86 C 160.85 194.75 154.50 202.13 148.79 208.38 C 146.03 205.82 143.34 203.18 140.60 200.60 C 145.12 191.66 149.92 182.24 149.75 171.96 C 147.02 184.46 141.89 196.37 135.18 207.25 C 132.65 211.51 129.16 215.20 127.33 219.87 C 122.91 220.74 118.72 218.48 114.32 218.34 C 113.12 217.05 111.85 215.83 110.50 214.69 C 112.48 210.66 111.42 206.22 110.82 202.01 C 109.34 186.37 112.89 170.88 116.77 155.84 C 111.28 166.70 110.06 179.03 109.53 191.01 C 105.56 191.19 101.58 191.23 97.60 191.11 C 97.44 179.53 96.70 167.60 92.23 156.77 C 93.79 165.46 95.88 174.10 96.12 182.98 C 96.83 193.54 95.51 204.06 94.77 214.58 C 93.49 215.40 92.22 216.25 90.96 217.10 C 90.51 216.82 89.59 216.27 89.14 216.00 C 88.42 217.01 87.71 218.02 87.00 219.04 C 86.07 218.43 85.13 217.83 84.20 217.23 C 83.28 218.15 82.36 219.08 81.45 220.01 C 80.94 219.55 79.94 218.63 79.44 218.17 C 78.35 218.45 77.27 218.73 76.18 219.02 C 75.97 217.91 75.76 216.81 75.53 215.72 C 65.44 205.26 58.08 191.97 55.19 177.68 C 54.77 186.40 58.72 194.56 63.13 201.83 C 60.83 203.36 58.57 205.04 55.98 206.08 C 49.89 201.83 45.71 194.21 37.88 192.66 C 37.44 192.56 36.54 192.36 36.10 192.26 C 33.45 189.37 31.09 186.09 29.78 182.37 C 29.91 182.09 30.15 181.53 30.27 181.25 C 31.49 180.16 32.88 181.29 34.09 181.80 C 39.21 184.37 42.82 189.03 47.69 191.99 C 45.41 189.59 43.02 187.30 40.69 184.96 C 40.54 180.28 41.04 175.50 43.15 171.26 C 46.40 164.84 51.02 159.18 54.10 152.67 C 54.31 152.24 54.71 151.38 54.91 150.96 L 55.32 150.29 C 58.67 144.46 59.73 137.64 60.25 131.03 C 66.80 136.26 73.91 140.99 81.83 143.89 C 74.61 139.51 67.23 135.29 60.84 129.72 C 64.66 127.89 68.89 125.62 70.30 121.32 C 72.52 113.87 67.09 105.27 59.53 103.76 C 56.77 103.23 54.10 104.39 51.50 105.13 C 52.94 99.52 54.55 93.87 54.63 88.03 C 54.81 82.07 53.68 75.88 55.79 70.13 C 57.20 65.82 60.38 62.49 62.93 58.86 C 61.40 60.17 59.94 61.57 58.51 62.99 C 47.43 56.71 37.33 48.70 28.64 39.39 C 26.19 36.79 24.67 33.50 23.94 30.03 C 23.77 29.44 23.42 28.26 23.24 27.67 C 23.17 27.27 23.03 26.46 22.96 26.05 C 22.77 25.46 22.40 24.29 22.21 23.70 C 20.84 18.14 20.21 12.43 20.00 6.71 M 67.29 83.26 C 62.55 86.86 62.36 95.10 67.41 98.49 C 71.97 102.13 79.32 99.85 81.44 94.53 C 81.46 94.49 81.49 94.42 81.50 94.39 C 82.51 91.19 82.51 87.24 80.20 84.56 C 77.26 80.68 70.96 80.10 67.29 83.26 M 123.48 94.40 C 123.50 94.43 123.53 94.50 123.54 94.53 C 126.07 100.34 134.83 101.90 138.93 96.93 C 144.10 91.38 139.71 81.00 132.01 81.07 C 125.08 80.38 120.91 88.52 123.48 94.40 M 100.09 98.53 C 102.37 100.13 105.08 99.89 107.02 97.95 C 104.72 97.65 102.09 96.95 100.09 98.53 M 91.11 112.02 C 89.32 111.58 87.76 110.54 86.07 109.85 C 87.93 113.56 92.64 114.44 96.31 113.19 C 99.05 112.70 101.17 110.60 103.80 109.94 C 106.83 111.32 109.65 113.25 112.96 113.93 C 116.29 114.68 119.85 112.44 121.00 109.31 C 119.09 110.55 117.37 112.37 114.97 112.51 C 110.66 112.49 107.15 109.66 103.22 108.30 C 99.36 109.96 95.52 112.64 91.11 112.02 M 89.82 146.17 C 92.00 151.11 98.07 152.60 103.01 151.90 C 107.67 152.75 111.96 150.42 115.26 147.32 C 111.27 146.52 107.19 147.74 103.22 146.88 C 98.83 145.86 94.29 146.21 89.82 146.17 Z" />
<path fill="#ffd924" opacity="1.00" d=" M 26.08 183.14 C 26.56 182.65 27.52 181.65 28.00 181.16 C 29.80 184.87 31.78 188.54 34.47 191.71 C 33.77 191.92 32.37 192.35 31.66 192.56 C 29.18 189.89 26.74 186.82 26.08 183.14 Z" />
<path fill="#ffd924" opacity="1.00" d=" M 170.46 193.79 C 174.05 191.23 175.07 185.76 179.62 184.62 C 178.98 186.08 178.31 187.54 177.49 188.91 C 175.85 190.91 174.15 192.86 172.40 194.78 C 171.92 194.53 170.94 194.04 170.46 193.79 Z" />
<path fill="#ffd924" opacity="1.00" d=" M 24.64 185.14 C 26.90 187.29 28.05 190.45 30.75 192.16 C 29.78 192.69 28.73 193.04 27.67 193.34 C 26.57 190.65 25.09 188.06 24.64 185.14 Z" />
<path fill="#ffd924" opacity="1.00" d=" M 174.35 194.37 C 175.57 193.16 176.60 190.88 178.69 191.46 C 176.81 194.47 174.28 196.96 171.95 199.60 C 172.37 197.71 172.97 195.80 174.35 194.37 Z" />
</g>
<g id="#e5961eff">
<path fill="#e5961e" opacity="1.00" d=" M 22.21 23.70 C 22.40 24.29 22.77 25.46 22.96 26.05 C 22.77 25.46 22.40 24.29 22.21 23.70 Z" />
<path fill="#e5961e" opacity="1.00" d=" M 23.24 27.67 C 23.42 28.26 23.77 29.44 23.94 30.03 C 23.77 29.44 23.42 28.26 23.24 27.67 Z" />
<path fill="#e5961e" opacity="1.00" d=" M 81.44 94.53 C 81.46 94.49 81.49 94.42 81.50 94.39 C 81.49 94.42 81.46 94.49 81.44 94.53 Z" />
<path fill="#e5961e" opacity="1.00" d=" M 123.48 94.40 C 123.50 94.43 123.53 94.50 123.54 94.53 C 123.53 94.50 123.50 94.43 123.48 94.40 Z" />
<path fill="#e5961e" opacity="1.00" d=" M 156.22 106.64 C 157.29 110.41 157.50 114.45 156.12 118.18 C 156.87 114.38 156.75 110.46 156.22 106.64 Z" />
<path fill="#e5961e" opacity="1.00" d=" M 89.82 146.17 C 94.29 146.21 98.83 145.86 103.22 146.88 C 107.19 147.74 111.27 146.52 115.26 147.32 C 111.96 150.42 107.67 152.75 103.01 151.90 C 98.07 152.60 92.00 151.11 89.82 146.17 Z" />
<path fill="#e5961e" opacity="1.00" d=" M 158.88 149.19 C 156.79 148.22 158.69 145.76 160.02 147.75 C 159.73 148.11 159.17 148.83 158.88 149.19 Z" />
<path fill="#e5961e" opacity="1.00" d=" M 177.49 188.91 C 178.13 188.82 179.41 188.64 180.06 188.55 C 179.61 189.52 179.17 190.50 178.69 191.46 C 176.60 190.88 175.57 193.16 174.35 194.37 C 172.97 195.80 172.37 197.71 171.95 199.60 C 165.33 207.82 157.47 215.38 147.95 220.11 C 145.65 221.48 143.08 220.56 141.06 219.16 C 141.65 217.10 142.24 215.04 142.79 212.97 C 141.66 214.87 140.96 217.16 139.21 218.58 C 136.26 218.22 133.53 216.98 130.81 215.86 C 134.21 210.87 137.76 205.95 140.60 200.60 C 143.34 203.18 146.03 205.82 148.79 208.38 C 154.50 202.13 160.85 194.75 169.83 193.86 L 170.46 193.79 C 170.94 194.04 171.92 194.53 172.40 194.78 C 174.15 192.86 175.85 190.91 177.49 188.91 Z" />
<path fill="#e5961e" opacity="1.00" d=" M 97.60 191.11 C 101.58 191.23 105.56 191.19 109.53 191.01 C 109.22 197.80 110.09 204.57 111.01 211.29 C 105.98 211.18 100.95 211.20 95.93 211.40 C 96.80 204.67 97.54 197.91 97.60 191.11 Z" />
<path fill="#e5961e" opacity="1.00" d=" M 31.66 192.56 C 32.37 192.35 33.77 191.92 34.47 191.71 C 35.08 192.34 35.68 192.97 36.29 193.61 C 36.82 193.29 37.35 192.97 37.88 192.66 C 45.71 194.21 49.89 201.83 55.98 206.08 C 58.57 205.04 60.83 203.36 63.13 201.83 C 66.04 206.85 70.33 210.87 73.22 215.89 C 69.20 216.44 65.15 216.80 61.09 216.58 C 61.00 214.04 60.83 211.51 60.53 208.99 C 60.21 211.49 60.11 214.02 59.60 216.50 C 58.36 218.17 56.31 220.04 54.06 219.16 C 49.82 217.84 46.73 214.42 43.64 211.41 C 38.55 206.67 34.74 200.73 29.57 196.10 C 30.07 194.79 31.10 193.90 32.29 193.22 L 31.66 192.56 Z" />
</g>
<g id="#fafafaff">
<path fill="#fafafa" opacity="1.00" d=" M 74.32 83.21 C 77.15 82.01 80.84 84.79 79.84 87.90 C 79.85 91.44 74.07 92.38 72.60 89.41 C 71.37 87.38 71.90 84.08 74.32 83.21 Z" />
<path fill="#fafafa" opacity="1.00" d=" M 124.63 85.96 C 125.98 84.84 127.02 82.73 129.06 82.96 C 132.80 82.76 134.36 88.38 131.47 90.50 C 129.91 91.23 127.98 91.25 126.36 90.74 C 125.44 89.29 125.10 87.58 124.63 85.96 Z" />
</g>
<g id="#fd3410ff">
<path fill="#fd3410" opacity="1.00" d=" M 50.98 108.94 C 51.13 105.49 55.26 104.57 58.05 104.56 C 64.94 105.24 70.11 112.26 69.69 118.99 C 68.99 123.98 64.48 127.37 59.95 128.79 C 54.75 123.59 49.71 116.74 50.98 108.94 Z" />
<path fill="#fd3410" opacity="1.00" d=" M 148.27 106.03 C 150.99 105.58 153.05 107.71 155.02 109.21 C 155.25 115.65 153.78 122.53 149.28 127.37 C 145.45 129.65 139.31 129.06 137.14 124.78 C 133.79 116.94 139.88 106.96 148.27 106.03 Z" />
<path fill="#fd3410" opacity="1.00" d=" M 158.88 149.19 C 159.17 148.83 159.73 148.11 160.02 147.75 C 161.34 148.34 162.69 148.88 164.07 149.37 C 165.93 151.53 167.80 153.69 169.48 156.00 C 165.70 157.79 161.86 159.45 157.99 161.04 C 156.83 158.85 155.64 156.69 154.64 154.42 C 154.96 154.17 155.60 153.66 155.91 153.40 L 156.86 152.81 C 156.55 151.76 156.25 150.71 155.95 149.67 C 157.05 150.11 158.15 150.56 159.25 151.01 C 159.16 150.56 158.97 149.65 158.88 149.19 Z" />
</g>
</svg>
