<svg xmlns="http://www.w3.org/2000/svg" xmlns:xlink="http://www.w3.org/1999/xlink" version="1.1" x="0px" y="0px" viewBox="0 0 100 125" enable-background="new 0 0 100 100" xml:space="preserve"><path fill="#000000" d="M87.5,7.5c0-1-0.6-1.9-1.5-2.3c-0.9-0.4-2-0.2-2.7,0.5L66.4,22.6C61.2,20.9,55.7,20,50,20  s-11.2,0.9-16.4,2.6L16.8,5.7C16.1,5,15,4.8,14,5.2c-0.9,0.4-1.5,1.3-1.5,2.3v29.3C7.6,42.9,5,50.1,5,57.5C5,78.2,25.2,95,50,95  s45-16.8,45-37.5c0-7.4-2.6-14.6-7.5-20.7V7.5z M90,57.5C90,75.4,72.1,90,50,90S10,75.4,10,57.5c0-6.5,2.4-12.8,6.9-18.2  c0.4-0.5,0.6-1,0.6-1.6V13.5l13.7,13.7c0.7,0.7,1.7,0.9,2.6,0.6C38.9,25.9,44.4,25,50,25s11.1,0.9,16.2,2.8c0.9,0.3,1.9,0.1,2.6-0.6  l13.7-13.7v24.1c0,0.6,0.2,1.2,0.6,1.6C87.6,44.7,90,51,90,57.5z"/><path fill="#000000" d="M68.2,71.6c-0.7,0.7-1.5,1.3-2.3,1.8c-3.6,2.2-8.2,2.2-11.9,0c-0.4-0.2-0.8-0.5-1.2-0.8l2-5.9  c0.3-0.8,0.1-1.6-0.3-2.3c-0.5-0.7-1.2-1-2-1h-5c-0.8,0-1.6,0.4-2,1c-0.5,0.7-0.6,1.5-0.3,2.3l2,5.9c-0.4,0.3-0.8,0.6-1.2,0.8  c-3.6,2.2-8.2,2.2-11.9,0c-0.8-0.5-1.6-1.1-2.3-1.8c-1-1-2.6-1-3.5,0c-1,1-1,2.6,0,3.5c5.9,5.9,15.3,6.4,21.8,1.5  c2.9,2.2,6.5,3.3,10,3.3c4.3,0,8.5-1.6,11.8-4.9c1-1,1-2.6,0-3.5C70.8,70.6,69.2,70.6,68.2,71.6z"/><path fill="#000000" d="M35,55c2.8,0,5-2.2,5-5s-2.2-5-5-5s-5,2.2-5,5S32.2,55,35,55z"/><path fill="#000000" d="M65,55c2.8,0,5-2.2,5-5s-2.2-5-5-5s-5,2.2-5,5S62.2,55,65,55z"/><text x="0" y="115" fill="#000000" font-size="5px" font-weight="bold" font-family="'Helvetica Neue', Helvetica, Arial-Unicode, Arial, Sans-serif">modificado desde internet</text><text x="0" y="120" fill="#000000" font-size="5px" font-weight="bold" font-family="'Helvetica Neue', Helvetica, Arial-Unicode, Arial, Sans-serif">proyecto gatito</text></svg>